<?xml version="1.0" encoding="utf-8"?>
<!-- Generator: Adobe Illustrator 23.0.1, SVG Export Plug-In . SVG Version: 6.00 Build 0)  -->
<svg version="1.1" id="images" xmlns="http://www.w3.org/2000/svg" xmlns:xlink="http://www.w3.org/1999/xlink" x="0px" y="0px"
	 width="500px" height="313px" viewBox="0 0 500 313" style="enable-background:new 0 0 500 313;" xml:space="preserve">
<style type="text/css">
	.st0{fill:#9FD4E0;}
	.st1{fill:#CBD7F1;}
	.st2{fill:#C7D4F0;}
	.st3{fill:#05C5DB;}
	.st4{fill:#3D6ACC;}
	.st5{fill:#37BC9B;}
	.st6{fill:#2FB47E;}
	.st7{fill:#9AB2E4;}
	.st8{opacity:0.3;fill:#3D6ACC;}
	.st9{fill:#A7A7B1;}
	.st10{fill:#0C252E;}
	.st11{fill:#171733;}
	.st12{fill:#FFFFFF;}
	.st13{fill:#292969;}
	.st14{fill:#7BD3BD;}
	.st15{fill:#2F2F6D;}
	.st16{fill:#0D232B;}
	.st17{fill:#FF4963;}
	.st18{fill:#F5CFBF;}
	.st19{fill:#AFEBF2;}
	.st20{fill:#A2E281;}
	.st21{opacity:0.25;fill:#FFFFFF;}
	.st22{fill:#61DAE8;}
	.st23{fill:#E6F2FF;}
	.st24{fill:#71CFB8;}
	.st25{fill:#41B093;}
	.st26{fill:#2A9B92;}
	.st27{fill:#E3F5FF;}
	.st28{fill:#32B166;}
	.st29{fill:#87D7C3;}
	.st30{fill:#55C6AA;}
	.st31{fill:#93E6F0;}
	.st32{fill:#4DD6E5;}
	.st33{fill:#7998DC;}
	.st34{fill:#FF8193;}
	.st35{opacity:0.2;fill:#292969;}
	.st36{fill:#2F57C0;}
	.st37{fill:#F29D9D;}
	.st38{fill:#BD422A;}
	.st39{fill:url(#SVGID_1_);}
	.st40{fill:#C3B9DD;}
	.st41{fill:#3A3A75;}
	.st42{opacity:0.3;fill:#933E3E;}
	.st43{fill:#414179;}
	.st44{opacity:0.3;fill:#37BC9B;}
	.st45{fill:#F68987;}
	.st46{fill:#F8A8A6;}
	.st47{fill:#313149;}
	.st48{fill:#3C3C76;}
	.st49{fill:#0CA34B;}
	.st50{fill:#3DC19B;}
	.st51{fill:url(#SVGID_2_);}
	.st52{fill:url(#SVGID_3_);}
	.st53{fill:url(#SVGID_4_);}
	.st54{fill:#527AD2;}
	.st55{fill:#04A2CE;}
	.st56{fill:#BDAAB4;}
	.st57{fill:#E34998;}
	.st58{fill:#246AFC;}
	.st59{fill:#5F48DC;}
	.st60{fill:url(#SVGID_5_);}
	.st61{fill:#F6B8B8;}
	.st62{fill:#C63652;}
	.st63{fill:#4973CF;}
	.st64{fill:#6085D5;}
	.st65{fill:#091868;}
	.st66{fill:#0D1D7E;}
	.st67{fill:url(#SVGID_6_);}
	.st68{fill:#E6E5CE;}
	.st69{fill:#F7D8CB;}
	.st70{fill-rule:evenodd;clip-rule:evenodd;fill:#2F57C0;}
	.st71{fill:url(#SVGID_7_);}
	.st72{fill:#7394DA;}
	.st73{opacity:0.3;fill:#0C252E;}
	.st74{fill:#F6D2C3;}
	.st75{fill:#A48F90;}
</style>
<g>
	<path class="st0" d="M498.3,309.5h-78.4c-0.8,0-1.5,0.7-1.5,1.5l0,0c0,0.8,0.7,1.5,1.5,1.5h78.4c0.8,0,1.5-0.7,1.5-1.5l0,0
		C499.8,310.2,499.1,309.5,498.3,309.5z"/>
	<g>
		<path class="st1" d="M306.7,43.7c-0.1,0-0.2-0.1-0.2-0.2V28.4c0-0.1,0.1-0.2,0.2-0.2c0.1,0,0.2,0.1,0.2,0.2v15.1
			C306.9,43.6,306.8,43.7,306.7,43.7z"/>
		<path class="st1" d="M340.9,61.8c0,0-0.1,0-0.1,0l-34.2-18c-0.1-0.1-0.2-0.2-0.1-0.3c0.1-0.1,0.2-0.2,0.3-0.1l34.2,18
			c0.1,0.1,0.2,0.2,0.1,0.3C341.1,61.7,341,61.8,340.9,61.8z"/>
		<path class="st1" d="M272.5,61.8c-0.1,0-0.2,0-0.2-0.1c-0.1-0.1,0-0.2,0.1-0.3l34.2-18c0.1-0.1,0.2,0,0.3,0.1
			c0.1,0.1,0,0.2-0.1,0.3l-34.2,18C272.6,61.7,272.6,61.8,272.5,61.8z"/>
		<path class="st1" d="M306.7,28.6c-0.1,0-0.2-0.1-0.2-0.2c0-0.1,0-0.2,0.2-0.3L425.1,0.6c0,0,0.1,0,0.1,0l60.2,27.6
			c0.1,0.1,0.2,0.2,0.1,0.3c-0.1,0.1-0.2,0.2-0.3,0.1L425.2,1L306.7,28.6C306.8,28.6,306.7,28.6,306.7,28.6z"/>
		<path class="st2" d="M413.9,282.9c-0.2,0-0.4-0.1-0.6-0.2c-0.3-0.3-0.3-0.8,0-1.1l22.2-22.4l-22.2-21.8c-0.1-0.1-0.2-0.3-0.2-0.6
			c0-0.2,0.1-0.4,0.2-0.6l22.2-22.4l-22.2-22.4c-0.3-0.3-0.3-0.8,0-1.1l22.2-22L413.4,146c-0.3-0.3-0.3-0.8,0-1.1l22.2-22.5
			l-22.2-22.2c-0.3-0.3-0.3-0.8,0-1.1l22.2-22.4l-22.2-22.5c-0.3-0.3-0.3-0.8,0-1.1c0.3-0.3,0.8-0.3,1.1,0l22.7,23
			c0.3,0.3,0.3,0.8,0,1.1L415,99.6l22.2,22.2c0.3,0.3,0.3,0.8,0,1.1L415,145.4l22.2,22.3c0.1,0.1,0.2,0.3,0.2,0.6
			c0,0.2-0.1,0.4-0.2,0.6l-22.2,22l22.2,22.4c0.3,0.3,0.3,0.8,0,1.1L415,236.8l22.2,21.8c0.1,0.1,0.2,0.3,0.2,0.6
			c0,0.2-0.1,0.4-0.2,0.6l-22.8,22.9C414.3,282.9,414.1,282.9,413.9,282.9z"/>
		<path class="st3" d="M438.3,53.8h-25.9c-0.6,0-1.1-0.5-1.1-1.1V26.8c0-0.6,0.5-1.1,1.1-1.1h25.9c0.6,0,1.1,0.5,1.1,1.1v25.9
			C439.4,53.3,438.9,53.8,438.3,53.8z"/>
		<path class="st3" d="M436.7,282.9h-22.8c-0.2,0-0.4-0.1-0.6-0.2c-0.1-0.1-0.2-0.3-0.2-0.6l0.1-228.5c0-0.4,0.3-0.8,0.8-0.8h22.6
			c0.4,0,0.8,0.3,0.8,0.8l0,228.5c0,0.2-0.1,0.4-0.2,0.6C437.1,282.8,436.9,282.9,436.7,282.9z M414.7,281.4h21.2l0-227h-21.1
			L414.7,281.4z"/>
		<path class="st3" d="M436.7,282.9c-0.2,0-0.4-0.1-0.6-0.2l-22.8-22.9c-0.1-0.1-0.2-0.3-0.2-0.6c0-0.2,0.1-0.4,0.2-0.6l22.2-21.8
			l-22.2-22.4c-0.3-0.3-0.3-0.8,0-1.1l22.2-22.4l-22.2-22c-0.1-0.1-0.2-0.3-0.2-0.6c0-0.2,0.1-0.4,0.2-0.6l22.2-22.3l-22.2-22.5
			c-0.3-0.3-0.3-0.8,0-1.1l22.2-22.2l-22.2-22.4c-0.3-0.3-0.3-0.8,0-1.1l22.7-23c0.3-0.3,0.8-0.3,1.1,0c0.3,0.3,0.3,0.8,0,1.1
			L415,76.6L437.2,99c0.3,0.3,0.3,0.8,0,1.1L415,122.4l22.2,22.5c0.3,0.3,0.3,0.8,0,1.1L415,168.3l22.2,22c0.3,0.3,0.3,0.8,0,1.1
			L415,213.8l22.2,22.4c0.1,0.1,0.2,0.3,0.2,0.6c0,0.2-0.1,0.4-0.2,0.6L415,259.2l22.2,22.4c0.3,0.3,0.3,0.8,0,1.1
			C437.1,282.9,436.9,282.9,436.7,282.9z"/>
		<path class="st3" d="M485.4,51.9C485.4,51.9,485.4,51.9,485.4,51.9l-46-0.1c-0.4,0-0.8-0.4-0.8-0.8V28.4c0-0.4,0.3-0.8,0.8-0.8
			l46,0c0.2,0,0.4,0.1,0.6,0.2c0.1,0.1,0.2,0.3,0.2,0.6v22.8c0,0.2-0.1,0.4-0.2,0.6C485.8,51.8,485.6,51.9,485.4,51.9z M440.2,50.2
			l44.4,0.1V29.2l-44.4,0V50.2z"/>
		<path class="st3" d="M462.4,51.9c-0.2,0-0.4-0.1-0.5-0.2l-23-22.8c-0.3-0.3-0.3-0.8,0-1.1c0.3-0.3,0.8-0.3,1.1,0l22.5,22.2
			l22.4-22.2c0.3-0.3,0.8-0.3,1.1,0c0.3,0.3,0.3,0.8,0,1.1l-23,22.8C462.8,51.9,462.6,51.9,462.4,51.9z"/>
		<path class="st3" d="M411.3,51.9c-0.1,0-0.1,0-0.2,0L306.6,29.2c-0.4-0.1-0.7-0.5-0.6-0.8c0-0.4,0.4-0.7,0.8-0.7l104.6,0
			c0.2,0,0.4,0.1,0.6,0.2c0.1,0.1,0.2,0.3,0.2,0.6v22.8c0,0.2-0.1,0.5-0.3,0.6C411.6,51.9,411.5,51.9,411.3,51.9z M314,29.2l96.5,21
			v-21L314,29.2z"/>
		<path class="st3" d="M392.4,47.8c-0.2,0-0.4-0.1-0.5-0.2l-18.5-18.1L362,40.8c-0.3,0.3-0.8,0.3-1.1,0l-11-11l-6.8,6.8
			c-0.3,0.3-0.8,0.3-1.1,0l-6.8-6.8l-4.2,4.2c-0.3,0.3-0.8,0.3-1.1,0l-4.3-4.3l-2.7,2.7c-0.3,0.3-0.8,0.3-1.1,0l-2.8-2.8l-1.6,1.6
			c-0.3,0.3-0.8,0.3-1.1,0c-0.3-0.3-0.3-0.8,0-1.1l2.2-2.2c0.3-0.3,0.8-0.3,1.1,0l2.8,2.8l2.7-2.7c0.3-0.3,0.8-0.3,1.1,0l4.3,4.3
			l4.2-4.2c0.3-0.3,0.8-0.3,1.1,0l6.8,6.8l6.8-6.8c0.3-0.3,0.8-0.3,1.1,0l11,11l11.3-11.3c0.3-0.3,0.8-0.3,1.1,0l18.5,18.1
			l18.4-18.1c0.3-0.3,0.8-0.3,1.1,0c0.3,0.3,0.3,0.8,0,1.1l-18.9,18.6C392.8,47.7,392.6,47.8,392.4,47.8z"/>
		<rect x="415.1" y="35.6" class="st4" width="20.2" height="2.2"/>
		<path class="st3" d="M413.9,26.5c-0.1,0-0.2,0-0.3-0.1c-0.4-0.2-0.6-0.6-0.4-1l11.3-24.9c0.1-0.3,0.4-0.5,0.7-0.5c0,0,0,0,0,0
			c0.3,0,0.6,0.2,0.7,0.5l11.5,24.9c0.2,0.4,0,0.9-0.4,1c-0.4,0.2-0.9,0-1-0.4L425.2,2.7L414.6,26C414.5,26.3,414.2,26.5,413.9,26.5
			z"/>
		<path class="st4" d="M341.3,78.6h-68.7V61.5h68.7V78.6z M282.9,66.6c-1.9,0-3.5,1.6-3.5,3.5s1.6,3.5,3.5,3.5
			c1.9,0,3.5-1.6,3.5-3.5S284.8,66.6,282.9,66.6z M298.5,66.6c-1.9,0-3.5,1.6-3.5,3.5s1.6,3.5,3.5,3.5c1.9,0,3.5-1.6,3.5-3.5
			S300.4,66.6,298.5,66.6z M314.1,66.6c-1.9,0-3.5,1.6-3.5,3.5s1.6,3.5,3.5,3.5s3.5-1.6,3.5-3.5S316,66.6,314.1,66.6z M329.7,66.6
			c-1.9,0-3.5,1.6-3.5,3.5s1.6,3.5,3.5,3.5c1.9,0,3.5-1.6,3.5-3.5S331.6,66.6,329.7,66.6z"/>
	</g>
	<g>
		<polygon class="st3" points="62.3,294.9 56,294.9 57.2,264.5 60.8,264.5 		"/>
		<path class="st5" d="M105.6,232.8c0.7-3.6-0.2-7.2-2.2-10.2c-1.5-2.3-1.7-5-0.3-7.3c1.1-1.9,2-4,2.4-6.3c1.1-6.2-1-12.3-5.2-16.8
			c-2.2-2.4-2.9-5.6-1.9-8.4c0.3-0.7,0.4-1.4,0.6-2.1c1-5.5-1.7-10.8-6.3-13.9c-2.7-1.8-3.8-5-2.4-7.7c0.6-1.3,1.1-2.6,1.4-4
			c1.6-8.6-4.8-17-14.2-18.8l0,0c-1.4-0.3-2.3-1.5-2.1-2.8c0,0,0-0.1,0-0.1c2-11.1-6.3-21.8-18.4-23.8c-11.4-1.8-22.6,5.5-24.5,15.9
			c-0.5,2.5-0.4,5,0.1,7.4c1.2,5.3-1.6,10.6-6.9,12.7c-9,3.7-15.9,11.3-17.7,21c-1.1,6.2,0,12.3,2.8,17.6c2.5,4.7,1.3,10.2-2.8,13.6
			c-4,3.3-6.8,7.9-7.8,13.2c-1.7,9.4,2.9,18.6,11,23.8c1.5,1,2.3,2.7,2,4.3c0,0,0,0,0,0c-0.9,4.9,2.7,9.6,8,10.6c0,0,0.1,0,0.1,0
			c0.6,0.1,1,0.6,0.9,1.2l0,0c-1.2,6.9,3.8,13.5,11.2,14.9c1.1,0.2,2.2,0.3,3.3,0.2c2.5-0.1,4.9,1.1,6.4,3
			c4.5,6.2,11.6,10.7,20.1,12.2c15.8,2.7,31.4-7.2,34.1-21.7c0.6-3,0.6-6.1,0.1-9c-0.7-4.2,0.7-8.4,3.9-11.3
			C103.6,238.4,105.1,235.8,105.6,232.8z"/>
		<path class="st6" d="M118.2,233.2c0.4-3.3-0.7-6.4-2.7-8.9c-1.5-1.9-1.9-4.4-0.8-6.4c0.9-1.7,1.5-3.7,1.7-5.7
			c0.6-5.5-1.7-10.8-5.8-14.5c-2.2-2-3.1-4.7-2.3-7.3c0.2-0.6,0.3-1.3,0.4-1.9c0.5-4.9-2.2-9.4-6.7-11.9c-2.6-1.4-3.8-4.2-2.7-6.7
			c0.5-1.2,0.9-2.4,1-3.6c0.8-7.7-5.5-14.8-14.2-15.7l0,0c-1.3-0.1-2.2-1.2-2.1-2.3c0,0,0-0.1,0-0.1c1.1-9.9-7.2-18.9-18.4-19.9
			c-10.5-0.9-20.3,6.2-21.3,15.5c-0.2,2.3,0,4.5,0.6,6.5c1.4,4.6-0.8,9.4-5.4,11.6c-8,3.8-13.7,10.9-14.7,19.6
			c-0.6,5.5,0.8,10.9,3.7,15.4c2.6,4,1.9,9-1.6,12.2c-3.4,3.2-5.7,7.3-6.2,12.1c-0.9,8.4,3.9,16.3,11.7,20.4
			c1.5,0.8,2.3,2.2,2.1,3.7c0,0,0,0,0,0c-0.5,4.4,3.1,8.3,8,8.9c0,0,0.1,0,0.1,0c0.6,0.1,1,0.5,0.9,1l0,0
			c-0.7,6.1,4.4,11.7,11.3,12.5c1,0.1,2.1,0.1,3.1,0c2.3-0.3,4.6,0.6,6,2.3c4.5,5.2,11.3,8.8,19.1,9.6c14.6,1.4,28.1-8.2,29.6-21.2
			c0.3-2.7,0.1-5.4-0.5-8c-0.9-3.7,0.1-7.4,2.8-10.2C116.7,238.2,117.9,235.8,118.2,233.2z"/>
	</g>
	<path class="st5" d="M406.9,236.5c0.7-2.9-0.1-5.7-1.9-8c-1.4-1.8-1.5-3.9-0.2-5.7c1.1-1.5,1.9-3.2,2.3-5c1.1-4.9-0.7-9.6-4.5-13.1
		c-2-1.8-2.6-4.3-1.6-6.6c0.2-0.5,0.4-1.1,0.6-1.7c1-4.3-1.4-8.5-5.6-10.8c-2.5-1.4-3.4-3.9-2.1-6c0.6-1,1.1-2.1,1.3-3.2
		c1.6-6.8-4.2-13.3-12.8-14.6l0,0c-1.3-0.2-2.1-1.1-1.9-2.1c0,0,0-0.1,0-0.1c2-8.7-5.5-17.1-16.6-18.4c-10.5-1.3-21,4.5-22.9,12.8
		c-0.5,2-0.4,4,0,5.8c1,4.1-1.7,8.3-6.5,10c-8.4,3-14.8,9-16.6,16.7c-1.1,4.9-0.2,9.7,2.3,13.8c2.2,3.7,1.1,8-2.8,10.7
		c-3.7,2.6-6.4,6.2-7.4,10.4c-1.7,7.4,2.4,14.6,9.9,18.6c1.4,0.7,2.1,2.1,1.8,3.4c0,0,0,0,0,0c-0.9,3.8,2.3,7.5,7.2,8.2
		c0,0,0.1,0,0.1,0c0.6,0.1,0.9,0.5,0.8,0.9l0,0c-1.2,5.4,3.3,10.6,10.2,11.6c1,0.1,2.1,0.2,3.1,0.1c2.3-0.1,4.5,0.8,5.8,2.3
		c4.1,4.8,10.5,8.3,18.3,9.3c14.6,1.9,29.1-6,31.8-17.4c0.6-2.4,0.6-4.8,0.2-7.1c-0.6-3.3,0.8-6.6,3.7-8.9
		C404.9,240.9,406.4,238.8,406.9,236.5z"/>
	<path class="st6" d="M413,242.8c0.3-2.4-0.5-4.7-2.1-6.5c-1.2-1.4-1.5-3.2-0.5-4.8c0.8-1.3,1.3-2.7,1.5-4.3c0.6-4.1-1.2-8-4.5-10.7
		c-1.7-1.4-2.4-3.5-1.8-5.4c0.2-0.5,0.3-0.9,0.3-1.4c0.5-3.6-1.7-7-5.3-8.7c-2.1-1-3-3.1-2.1-4.9c0.4-0.9,0.7-1.8,0.9-2.7
		c0.8-5.8-4.3-10.9-11.3-11.5l0,0c-1-0.1-1.8-0.9-1.6-1.7c0,0,0-0.1,0-0.1c1-7.4-5.6-14-14.7-14.6c-8.5-0.6-16.5,4.8-17.5,11.8
		c-0.2,1.7-0.1,3.3,0.4,4.9c1.1,3.4-0.8,7-4.6,8.7c-6.5,2.9-11.3,8.3-12.2,14.7c-0.6,4.1,0.5,8.1,2.8,11.4c2,2.9,1.4,6.6-1.5,9.1
		c-2.8,2.4-4.7,5.5-5.2,9.1c-0.9,6.3,3,12,9.2,15c1.2,0.6,1.8,1.6,1.6,2.7c0,0,0,0,0,0c-0.4,3.2,2.4,6.1,6.4,6.5c0,0,0.1,0,0.1,0
		c0.5,0,0.8,0.4,0.7,0.7l0,0c-0.6,4.6,3.4,8.7,9,9.1c0.8,0.1,1.7,0.1,2.5,0c1.9-0.2,3.7,0.4,4.9,1.6c3.6,3.8,9.1,6.4,15.4,6.9
		c11.9,0.9,23-6.4,24.4-16.1c0.3-2,0.2-4-0.3-5.9c-0.7-2.7,0.2-5.5,2.4-7.6C411.7,246.6,412.7,244.8,413,242.8z"/>
	<path class="st0" d="M444.5,282.3h-78.4c-0.8,0-1.5,0.7-1.5,1.5l0,0c0,0.8,0.7,1.5,1.5,1.5h78.4c0.8,0,1.5-0.7,1.5-1.5l0,0
		C446,283,445.3,282.3,444.5,282.3z"/>
	<path class="st7" d="M104.7,294.3H26.2c-0.8,0-1.5,0.7-1.5,1.5l0,0c0,0.8,0.7,1.5,1.5,1.5h78.4c0.8,0,1.5-0.7,1.5-1.5l0,0
		C106.2,295,105.5,294.3,104.7,294.3z"/>
	<path class="st8" d="M142.5,306.2c0,1.8-12.5,3.3-27.8,3.3c-15.4,0-27.8-1.5-27.8-3.3c0-1.8,12.5-3.3,27.8-3.3
		C130.1,302.8,142.5,304.3,142.5,306.2z"/>
	<path class="st9" d="M357.6,293.3H107.5c-10,0-18.1-8.1-18.1-18.1V110.5c0-10,8.1-18.1,18.1-18.1h250.1c10,0,18.1,8.1,18.1,18.1
		v164.6C375.8,285.2,367.6,293.3,357.6,293.3z"/>
	<path class="st10" d="M355.3,296.8H106c-10.6,0-19.2-8.6-19.2-19.2V112.9c0-10.6,8.6-19.2,19.2-19.2h249.3
		c10.6,0,19.2,8.6,19.2,19.2v164.7C374.5,288.2,365.9,296.8,355.3,296.8z"/>
	<path class="st11" d="M357.6,294.6H105.2c-9.4,0-17-7.6-17-17V110.7c0-9.4,7.6-17,17-17h252.3c9.4,0,17,7.6,17,17v166.9
		C374.6,287,367,294.6,357.6,294.6z"/>
	<rect x="106.8" y="98.2" class="st12" width="249.2" height="191.9"/>
	<path d="M356.5,290.6H106.3V97.7h250.2V290.6z M107.3,289.6h248.2V98.7H107.3V289.6z"/>
	<path class="st13" d="M364.6,200L364.6,200c-0.6,0-1-0.5-1-1v-13.7c0-0.6,0.5-1,1-1l0,0c0.6,0,1,0.5,1,1V199
		C365.7,199.6,365.2,200,364.6,200z"/>
	<ellipse cx="98.1" cy="192.1" rx="1.6" ry="1.7"/>
	<rect x="123.2" y="119.9" class="st14" width="163.7" height="85.3"/>
	<g>
		<rect x="231.5" y="146.8" class="st3" width="124" height="58.4"/>
		<polygon class="st3" points="231.5,146.8 262.5,120.1 262.5,146.8 		"/>
		<rect x="262.5" y="120.1" class="st15" width="93" height="26.7"/>
		<path class="st4" d="M355.6,122.6h-93v-0.3h93V122.6z M355.6,124.8h-93v0.3h93V124.8z M355.6,127.2h-93v0.3h93V127.2z
			 M355.6,129.7h-93v0.3h93V129.7z M355.6,132.1h-93v0.3h93V132.1z M355.6,134.9h-93v-0.3h93V134.9z M355.6,137.1h-93v0.3h93V137.1z
			 M355.6,139.5h-93v0.3h93V139.5z M355.6,142h-93v0.3h93V142z M355.6,144.5h-93v0.3h93V144.5z"/>
		<polygon class="st3" points="262.5,146.8 293.5,120.1 293.5,146.8 		"/>
		<polygon class="st3" points="293.5,146.8 324.5,120.1 324.5,146.8 		"/>
		<rect x="240.9" y="180.7" class="st4" width="26.6" height="24.5"/>
		<rect x="280.6" y="180.7" class="st4" width="8.9" height="24.5"/>
		<rect x="299.3" y="180.7" class="st4" width="56.2" height="24.5"/>
		<rect x="249.9" y="142.2" class="st4" width="1.7" height="5.1"/>
		<rect x="280.6" y="142.2" class="st4" width="1.7" height="5.1"/>
		<rect x="311.3" y="142.2" class="st4" width="1.7" height="5.1"/>
		<rect x="280.7" y="160.9" class="st4" width="1.7" height="5.1"/>
		<rect x="311.4" y="160.9" class="st4" width="1.7" height="5.1"/>
		<rect x="339.6" y="160.9" class="st4" width="1.7" height="5.1"/>
		<g>
			
				<ellipse transform="matrix(3.231742e-03 -1 1 3.231742e-03 87.1016 412.8487)" class="st15" cx="250.6" cy="162.7" rx="7.3" ry="7.3"/>
			<g>
				<path class="st3" d="M254.6,160.3c-0.4,0.4-3.4,2.7-3.8,2.3c-0.4-0.4,1.9-3.4,2.3-3.8c0.4-0.4,1.1-0.4,1.5,0
					C255,159.2,255,159.9,254.6,160.3z"/>
				<path class="st3" d="M246.7,160.6c0.6,0.2,4.1,1.6,3.9,2.2c-0.2,0.6-3.9,0.1-4.5-0.1c-0.6-0.2-0.9-0.7-0.8-1.3
					C245.5,160.8,246.1,160.5,246.7,160.6z"/>
				<path class="st3" d="M250.7,167.3c-0.2-0.6-0.7-4.3-0.1-4.5c0.6-0.2,2,3.3,2.2,3.9c0.2,0.6-0.2,1.2-0.8,1.3
					C251.5,168.2,250.9,167.9,250.7,167.3z"/>
			</g>
			<g>
				<g>
					<path class="st4" d="M250.7,167.7c-2.7,0-5-2.2-5-5c0-2.7,2.2-5,5-5s5,2.2,5,5C255.6,165.5,253.4,167.7,250.7,167.7z
						 M250.7,158.1c-2.6,0-4.7,2.1-4.7,4.7c0,2.6,2.1,4.7,4.7,4.7c2.6,0,4.7-2.1,4.7-4.7C255.3,160.2,253.2,158.1,250.7,158.1z"/>
					<path class="st4" d="M250.7,165.3c-1.4,0-2.6-1.2-2.6-2.6c0-1.4,1.2-2.6,2.6-2.6c1.4,0,2.6,1.2,2.6,2.6
						C253.2,164.2,252.1,165.3,250.7,165.3z M250.7,160.5c-1.3,0-2.3,1-2.3,2.3c0,1.3,1,2.3,2.3,2.3s2.3-1,2.3-2.3
						C252.9,161.5,251.9,160.5,250.7,160.5z"/>
				</g>
				<g>
					<rect x="250.5" y="162.8" class="st4" width="0.3" height="7.3"/>
					
						<rect x="254" y="160.2" transform="matrix(0.3091 -0.951 0.951 0.3091 19.7198 354.8878)" class="st4" width="0.3" height="7.3"/>
					
						<rect x="249.2" y="159.7" transform="matrix(0.5879 -0.809 0.809 0.5879 -25.0995 270.3689)" class="st4" width="7.3" height="0.3"/>
					
						<rect x="248.4" y="156.2" transform="matrix(0.8091 -0.5877 0.5877 0.8091 -46.4753 176.5668)" class="st4" width="0.3" height="7.3"/>
					
						<rect x="243.6" y="163.7" transform="matrix(0.9511 -0.3088 0.3088 0.9511 -38.5212 84.3474)" class="st4" width="7.3" height="0.3"/>
				</g>
			</g>
		</g>
		<g>
			<rect x="242.9" y="194.1" class="st16" width="22.5" height="0.3"/>
			<rect x="242.9" y="201" class="st16" width="22.5" height="0.3"/>
			<rect x="242.9" y="198.7" class="st16" width="22.5" height="0.3"/>
			<rect x="242.9" y="191.7" class="st16" width="22.5" height="0.3"/>
			<rect x="242.9" y="182.5" class="st16" width="22.5" height="0.3"/>
			<rect x="242.9" y="189.4" class="st16" width="22.5" height="0.3"/>
			<rect x="242.9" y="184.8" class="st16" width="22.5" height="0.3"/>
			<rect x="242.9" y="203.3" class="st16" width="22.5" height="0.3"/>
			<rect x="242.9" y="187.1" class="st16" width="22.5" height="0.3"/>
			<rect x="242.9" y="196.4" class="st16" width="22.5" height="0.3"/>
			<rect x="301.2" y="187.1" class="st16" width="52.3" height="0.3"/>
			<rect x="301.2" y="203.3" class="st16" width="52.3" height="0.3"/>
			<rect x="301.2" y="189.4" class="st16" width="52.3" height="0.3"/>
			<rect x="301.2" y="184.8" class="st16" width="52.3" height="0.3"/>
			<rect x="301.2" y="182.5" class="st16" width="52.3" height="0.3"/>
			<rect x="301.2" y="191.7" class="st16" width="52.3" height="0.3"/>
			<rect x="301.2" y="194.1" class="st16" width="52.3" height="0.3"/>
			<rect x="301.2" y="201" class="st16" width="52.3" height="0.3"/>
			<rect x="301.2" y="198.7" class="st16" width="52.3" height="0.3"/>
			<rect x="301.2" y="196.4" class="st16" width="52.3" height="0.3"/>
		</g>
	</g>
	<rect x="265.4" y="213.3" class="st4" width="74.2" height="4.6"/>
	<rect x="123.2" y="112.3" class="st4" width="33.3" height="7.7"/>
	
		<rect x="156.6" y="112.3" transform="matrix(-1 -1.224647e-16 1.224647e-16 -1 365.3873 232.2141)" class="st3" width="52.3" height="7.7"/>
	<path class="st8" d="M229.2,202.3l-84.8-9.6c-3-0.3-5.2-3.1-4.9-6.1l2.6-23.2c0.3-3,3.1-5.2,6.1-4.9l84.8,9.6
		c3,0.3,5.2,3.1,4.9,6.1l-2.6,23.2C235,200.5,232.2,202.7,229.2,202.3z"/>
	<path class="st12" d="M225.9,197.1l-87.3-15.4c-3.4-0.6-5.6-3.8-5-7.2l3.8-21.6c0.6-3.4,3.8-5.6,7.2-5l87.3,15.4
		c3.4,0.6,5.6,3.8,5,7.2l-3.8,21.6C232.6,195.5,229.3,197.7,225.9,197.1z"/>
	<path class="st17" d="M226.8,198l-88.4-15.6c-3.1-0.5-5.1-3.5-4.6-6.5l4-22.7c0.5-3.1,3.5-5.1,6.5-4.6l88.4,15.6
		c3.1,0.5,5.1,3.5,4.6,6.5l-4,22.7C232.8,196.5,229.8,198.5,226.8,198z"/>
	<g>
		<path class="st4" d="M151.1,221.8l-5.3,18.5l-17.3,8.5c-1.3-2.6-2-5.4-2-8.5c0-10.6,8.6-19.2,19.2-19.2
			C147.7,221.1,149.5,221.3,151.1,221.8z"/>
		<path class="st18" d="M145.9,240.3h19.2c0,0,0,0.1,0,0.1C158.9,240.5,145.9,240.3,145.9,240.3z"/>
		<path class="st19" d="M161.1,228.6l-15.2,11.7l5.3-18.5C155.2,223,158.6,225.4,161.1,228.6z"/>
		<path class="st20" d="M165.1,240.3h-19.2l15.2-11.7C163.6,231.8,165.1,235.9,165.1,240.3z"/>
		<path class="st3" d="M165.1,240.4c0,2.1-0.4,4.2-1,6.1l-18.2-6.3C145.9,240.3,158.9,240.5,165.1,240.4z"/>
		<path class="st5" d="M164.1,246.6c-2.6,7.5-9.8,13-18.2,13c-7.6,0-14.1-4.4-17.3-10.8l17.3-8.5L164.1,246.6z"/>
	</g>
	<path class="st21" d="M246.2,93.7H104.3c-8.9,0-16.1,8-16.1,18v165c0,9.9,7.2,18,16.1,18h15.9L246.2,93.7z"/>
	
		<rect x="154.7" y="169" transform="matrix(0.9848 0.1739 -0.1739 0.9848 32.4343 -29.8496)" class="st12" width="63.6" height="2.4"/>
	
		<rect x="163.6" y="175.2" transform="matrix(0.9848 0.1739 -0.1739 0.9848 33.5027 -29.5787)" class="st12" width="43.8" height="2.4"/>
	<rect x="306.2" y="107.4" class="st3" width="41.7" height="4.9"/>
	<g>
		<path class="st22" d="M191.1,221.1v4.3c-8.2,0-14.9,6.7-14.9,14.9c0,4.1,1.7,7.8,4.3,10.5l-3.1,3.1c-3.5-3.5-5.6-8.3-5.6-13.6
			C171.9,229.7,180.5,221.1,191.1,221.1z"/>
		<path class="st3" d="M210.3,240.3c0,10.6-8.6,19.2-19.2,19.2c-5.3,0-10.1-2.2-13.6-5.7l3.1-3.1c2.7,2.7,6.4,4.4,10.5,4.4
			c8.2,0,14.9-6.7,14.9-14.9s-6.7-14.9-14.9-14.9v-4.3C201.7,221.1,210.3,229.7,210.3,240.3z"/>
		<path class="st23" d="M205.9,240.3c0,8.2-6.7,14.9-14.9,14.9c-4.1,0-7.8-1.7-10.5-4.4c-2.7-2.7-4.3-6.4-4.3-10.5
			c0-8.2,6.7-14.9,14.9-14.9S205.9,232.1,205.9,240.3z"/>
	</g>
	<g>
		<path class="st24" d="M251.2,251.8c-3.5,4.7-9.1,7.8-15.4,7.8c-10.6,0-19.2-8.6-19.2-19.2c0-10.6,8.6-19.2,19.2-19.2v4.3
			c-8.2,0-14.9,6.7-14.9,14.9c0,4.1,1.7,7.8,4.3,10.5c2.7,2.7,6.4,4.4,10.5,4.4c4.9,0,9.2-2.4,11.9-6L251.2,251.8z"/>
		<path class="st5" d="M255,240.3c0,4.3-1.4,8.3-3.8,11.5l-3.5-2.6c1.8-2.5,2.9-5.5,2.9-8.9c0-8.2-6.7-14.9-14.9-14.9v-4.3
			C246.4,221.1,255,229.7,255,240.3z"/>
		<path class="st23" d="M250.6,240.3c0,3.3-1.1,6.4-2.9,8.9c-2.7,3.6-7.1,6-11.9,6c-4.1,0-7.8-1.7-10.5-4.4
			c-2.7-2.7-4.3-6.4-4.3-10.5c0-8.2,6.7-14.9,14.9-14.9S250.6,232.1,250.6,240.3z"/>
	</g>
	<path class="st25" d="M298.6,309.9c0-24.3,19.7-74.2,44-74.2c24.3,0,44,49.9,44,74.2H298.6z"/>
	<rect x="265.4" y="232" class="st20" width="74.2" height="34.7"/>
	<path class="st5" d="M298.6,309.9c0-24.3,19.7-74.2,44-74.2c24.3,0,44,49.9,44,74.2H298.6z"/>
	<path class="st26" d="M355.3,240.2l-7.6,5.3c-1.3-1.2-3.1-1.9-5.1-1.9c-4.2,0-7.6,3.4-7.6,7.6c0,1,0.2,2,0.6,2.9l-29.1,20.5
		c-1.2,2.9-2.2,5.9-3.1,8.9l36-25.4c1,0.5,2.1,0.7,3.2,0.7c4.2,0,7.6-3.4,7.6-7.6c0-0.3,0-0.5,0-0.8l9.4-6.6
		C358.2,242.4,356.8,241.2,355.3,240.2z"/>
	<path class="st3" d="M427.2,193.4l-164.5,116c-1.2,0.9-2.9,0.6-3.8-0.7l0,0c-0.9-1.2-0.6-2.9,0.7-3.8l164.5-116
		c1.2-0.9,2.9-0.6,3.8,0.7l0,0C428.7,190.9,428.4,192.6,427.2,193.4z"/>
	
		<ellipse transform="matrix(1 -4.839020e-03 4.839020e-03 1 -1.2052 1.6611)" class="st27" cx="342.7" cy="249.9" rx="7.6" ry="7.6"/>
	
		<ellipse transform="matrix(1 -1.230007e-03 1.230007e-03 1 -0.3086 0.4217)" class="st8" cx="342.7" cy="251.1" rx="4.8" ry="4.8"/>
	<path class="st3" d="M347.5,249.9c0,2.7-2.2,4.8-4.8,4.8s-4.8-2.2-4.8-4.8c0-2.7,2.2-4.8,4.8-4.8S347.5,247.2,347.5,249.9z"/>
	<g>
		<path class="st5" d="M138.2,305.5c0-1.5-10.1-2.7-22.6-2.7c-12.5,0-22.6,1.2-22.6,2.7c0,0.2,0.2,0.4,0.6,0.6
			c1.4,1.3,10.8,2.3,22.1,2.3c11.3,0,20.6-1,22.1-2.3C138,305.9,138.2,305.7,138.2,305.5z"/>
		<path class="st8" d="M138.2,305.5c0-1.5-10.1-2.7-22.6-2.7c-12.5,0-22.6,1.2-22.6,2.7c0,0.2,0.2,0.4,0.6,0.6
			c1.4,1.3,10.8,2.3,22.1,2.3c11.3,0,20.6-1,22.1-2.3C138,305.9,138.2,305.7,138.2,305.5z"/>
		<path class="st28" d="M92.9,294.4v10.9c0,1.5,10.1,2.7,22.6,2.7c12.5,0,22.6-1.2,22.6-2.7v-10.9H92.9z"/>
		<ellipse class="st29" cx="115.5" cy="294.4" rx="22.6" ry="2.7"/>
		<ellipse class="st30" cx="115.5" cy="294.2" rx="22.3" ry="2.7"/>
		<ellipse class="st8" cx="115.5" cy="294.2" rx="22.3" ry="2.7"/>
	</g>
	<g>
		<path class="st3" d="M138.2,293.5c0-1.5-10.1-2.7-22.6-2.7c-12.5,0-22.6,1.2-22.6,2.7c0,0.2,0.2,0.4,0.6,0.6
			c1.4,1.3,10.8,2.3,22.1,2.3c11.3,0,20.6-1,22.1-2.3C138,293.9,138.2,293.7,138.2,293.5z"/>
		<path class="st8" d="M138.2,293.5c0-1.5-10.1-2.7-22.6-2.7c-12.5,0-22.6,1.2-22.6,2.7c0,0.2,0.2,0.4,0.6,0.6
			c1.4,1.3,10.8,2.3,22.1,2.3c11.3,0,20.6-1,22.1-2.3C138,293.9,138.2,293.7,138.2,293.5z"/>
		<path class="st3" d="M92.9,282.4v10.9c0,1.5,10.1,2.7,22.6,2.7c12.5,0,22.6-1.2,22.6-2.7v-10.9H92.9z"/>
		<ellipse class="st31" cx="115.5" cy="282.4" rx="22.6" ry="2.7"/>
		<ellipse class="st32" cx="115.5" cy="282.1" rx="22.3" ry="2.7"/>
	</g>
	<rect x="123.2" y="213.3" class="st13" width="6.4" height="4.6"/>
	<rect x="167.5" y="213.3" class="st13" width="6.4" height="4.6"/>
	<rect x="210.2" y="213.3" class="st13" width="6.4" height="4.6"/>
	<rect x="123.2" y="127.8" class="st33" width="4.8" height="4.8"/>
	<rect x="123.2" y="135.9" class="st33" width="4.8" height="4.8"/>
	<rect x="123.2" y="144" class="st34" width="4.8" height="4.8"/>
	<g>
		<path class="st35" d="M74.2,228.4c0,0,7-14,21.1-18.9c14-4.9,23.5-3.3,24.2-0.7c0.7,2.6-45.1,21.6-45.1,21.6L74.2,228.4z"/>
		<g>
			<path class="st4" d="M21.7,211.8c-2.1-1.2-2.1-3.5-1-4.7c1.1-1.2,1.1-1.9,3.2-3.4c2-1.5,2.9-1.2,4.9-1.6c2.1-0.4,2.4-1.5,3.8-3.1
				c1.4-1.6,2.8-2.4,5-2.6c2.2-0.2,2.9,0.3,5.2-0.7c2.3-1,1.9-2.4,4.4-2.8c3-0.4,4.1,2.1,4,4.5s-4.8,7-4.8,7s-0.6,0.5-2.2,2.1
				c-1.6,1.6-2.5,1.9-5.1,1.6c-2.6-0.3-3.9,0.5-5,1.4c-1.1,0.9-2.9,1.2-4.5,0.8c-1.6-0.4-2.8-0.1-4.2,0.8
				C24.1,212.1,22.5,212.2,21.7,211.8z"/>
			<path class="st36" d="M49.4,198.9l-5.2,2.2c-2.7,0.5-3.4-0.4-4.7,0.9c-1.3,1.3-2.6,2.6-3.9,2.8c-1.3,0.2-3.2-0.5-4.8,0.5
				c-1.6,1-2.1,2.6-3.7,3.2c-1.7,0.6-2.5,0.2-3.8,1.6c-0.5,0.6-0.8,1.3-0.9,2c0.8,0.1,2.1-0.1,3.2-0.8c1.4-0.9,2.6-1.2,4.2-0.8
				c1.6,0.4,3.4,0.1,4.5-0.8c1.1-0.9,2.4-1.7,5-1.4c2.6,0.3,3.5,0,5.1-1.6c1.6-1.6,2.2-2.1,2.2-2.1s2-2,3.4-4L49.4,198.9z"/>
			<path class="st37" d="M48,200.7c0.1,1-0.6,2-1.6,2.1c-1,0.1-2-0.6-2.1-1.6c-0.1-1,0.6-2,1.6-2.1C46.9,199,47.9,199.7,48,200.7z"
				/>
			<path class="st38" d="M47.1,200.8c0.1,0.5-0.3,1-0.9,1.1c-0.5,0.1-1-0.3-1.1-0.9c-0.1-0.5,0.3-1,0.9-1.1
				C46.5,199.9,47,200.3,47.1,200.8z"/>
			<g>
				<path class="st18" d="M52,217c1.9,0,3.6,0.2,4.7,0.3c0.2-1,0-1.9,0-2.9c0-0.5-0.6-1.2-1-1.8c-0.5-0.7-1.1-1.2-1.9-1.4
					c-0.4-0.1-0.7-0.3-0.9-0.9c-0.3-1.3-1.2-8.1-1.2-8.1l-5.5,0.1c0,0,1,6.8,0.8,7.9c-0.2,1-1.8,1.5-3.8,2.5
					c1.1,1.5,1.5,3.7,1.3,5.6C46.7,216.6,49.6,217.1,52,217z"/>
				<linearGradient id="SVGID_1_" gradientUnits="userSpaceOnUse" x1="49.882" y1="202.8136" x2="49.1664" y2="210.864">
					<stop  offset="0" style="stop-color:#E9A688"/>
					<stop  offset="1" style="stop-color:#F5CFBF;stop-opacity:0"/>
				</linearGradient>
				<path class="st39" d="M52.9,210.7c0-0.1-0.1-0.2-0.1-0.3c-0.3-1.3-1.2-8.1-1.2-8.1l-5.5,0.1c0,0,1,6.8,0.8,7.9
					c0,0.2-0.1,0.3-0.2,0.5H52.9z"/>
				<path class="st8" d="M49.9,206.5c0.5,0.1,1.9,0.1,2.3,0c-0.3-2.1-0.6-4.2-0.6-4.2l-4.5,0.1C47.3,204.5,48.4,206.2,49.9,206.5z"
					/>
			</g>
			<path class="st18" d="M53.1,200c0.4,2.6-0.4,4.9-2.7,5.2c-1.9,0.3-3.9-1.6-4.4-4.3c-0.5-2.6,0.2-4.9,2.9-5.3
				C52.9,195.2,52.8,197.4,53.1,200z"/>
			<path class="st40" d="M47.6,198.8c0.3-0.2,0.7-0.4,1.1-0.4c0.4-0.1,0.8-0.1,1.1,0c0,0,0,0,0,0c0,0,0,0,0,0h0
				c-0.4,0-0.7,0-1.1,0.1c-0.2,0-0.4,0.1-0.5,0.1C48,198.8,47.8,198.8,47.6,198.8L47.6,198.8C47.6,198.9,47.6,198.9,47.6,198.8
				C47.6,198.9,47.6,198.8,47.6,198.8z"/>
			<path class="st40" d="M52.8,197.9c-0.1,0-0.3,0-0.4,0c-0.4,0-0.8,0.1-1.1,0.3c0,0,0,0,0,0c0,0,0,0,0,0l0,0
				c0.2-0.1,0.4-0.1,0.5-0.1c0.2,0,0.4-0.1,0.5-0.1c0.1,0,0.3,0,0.4,0C52.8,198,52.8,198,52.8,197.9z"/>
			<path d="M49.1,199.6c0,0.1-0.1,0.3-0.2,0.3c-0.1,0-0.3-0.1-0.3-0.2c0-0.1,0.1-0.3,0.2-0.3C49,199.4,49.1,199.5,49.1,199.6z"/>
			<path d="M52.7,199.1c0,0.1-0.1,0.3-0.2,0.3c-0.1,0-0.3-0.1-0.3-0.2c0-0.1,0.1-0.3,0.2-0.3C52.6,198.9,52.7,199,52.7,199.1z"/>
			<path class="st37" d="M53.1,199.8C53.1,199.8,53.1,199.8,53.1,199.8c-0.5,0.1-0.8,0.5-0.8,0.9c0.1,0.4,0.4,0.7,0.9,0.7
				c0-0.5,0-1-0.1-1.5C53.1,199.9,53.1,199.9,53.1,199.8z"/>
			<path class="st37" d="M49.8,201c0.1,0.5-0.3,0.9-0.7,0.9c-0.5,0.1-0.9-0.3-0.9-0.7c-0.1-0.5,0.3-0.9,0.7-0.9
				C49.3,200.2,49.7,200.5,49.8,201z"/>
			<path class="st8" d="M51,197.6c0.4,0.3,1.6,1.2,2,1.2c-0.2-2.9-2.1-3.8-2.1-3.8l-4,1.5l-2.7,4.1l0.2,1c3.8,0,3.7-5.3,5.5-5.9
				C49.9,196,50.1,196.8,51,197.6z"/>
			<path class="st37" d="M51.1,199.1l0.8,1.2c0.1,0.1,0,0.3-0.1,0.4l-0.8,0.1L51.1,199.1z"/>
			<path class="st12" d="M52.4,201.6c0,0.4-0.4,0.7-1,0.8c-0.6,0.1-1.1-0.1-1.2-0.5c0-0.4,0.5-0.2,1.1-0.2S52.3,201.3,52.4,201.6z"
				/>
			<path class="st4" d="M54.4,195.9c-0.6-1.3-2.4-3.1-5-2.4c-2.2,0.6-3.2,2.3-3.2,2.3l-2.5,5.3c3.8,0,3.9-4.3,4.9-4.9
				c0.4-0.3,1-0.5,1.3-0.6c0.9,2.1,2.6,1,3.3,1.5c0.8,0.7,0.5,3.2,0.7,3.1C54.1,200.3,55.3,197.9,54.4,195.9z"/>
		</g>
		<g>
			<path class="st18" d="M50.6,212.4c-0.2,3.4,4.5,9.3,10.7,13.7c6.1,4.4,11.4,7.4,14.5,8.8c3.1,1.4,4.5,1.9,4.8,1.4
				c0.1-0.2-0.3-0.4-0.7-0.6c0.4,0.1,0.9,0.1,1-0.1c0.1-0.2-0.3-0.5-0.7-0.7c0.4,0.1,0.9,0.2,1.1-0.1c0.1-0.3-0.4-0.6-0.9-0.8
				c0.4,0.1,0.8,0.2,0.9-0.1c0.2-0.4-2.1-1.3-2.8-1.6c0.3,0.1,1,0.3,1.3,0.4c0.2,0.1,0.5-0.2,0.5-0.3c0-0.1-0.1-0.2-0.7-0.5
				c-1.1-0.5-3.6-1.3-8.9-4.6c-5.4-3.3-11.3-8.5-13.5-12.2c-0.3-0.5-0.8-1.5-1.1-2C54.4,212.2,50.8,208.8,50.6,212.4z"/>
			<path class="st37" d="M61.7,226.4c0.7,0.5,1.4,1,2,1.4c0.1-0.1,0.1-0.1,0.1-0.2c0.3-0.6,0.1-1.4-0.5-1.7
				C62.7,225.6,62,225.8,61.7,226.4z"/>
		</g>
		<path class="st8" d="M57.9,217.4c1.5,2.7,1.1,6.9,1.1,6.9s-2.3-2-3.1-2.9S57.9,217.4,57.9,217.4z"/>
		<polygon class="st13" points="69,292.4 68.3,292.6 68.8,294.1 69.4,293.6 		"/>
		<path class="st18" d="M74.5,293.7c-0.1,0.1-0.3,0.3-0.7,0.4c-0.5,0.2-1.6,0.3-2.9-0.5c-1.3-0.8-2.1-0.9-3.3-1
			c-1.3-3.8-5.2-12.9-8.4-22.6c-2.5-7.5-4.2-13.5-6.1-20.3l6.5-2.6c0,0,1.2,5.7,2.6,11.3c1.4,5.7,1.7,7,3.9,15
			c2.1,7.8,5,16.9,5.4,17.6C72.5,292.7,74.3,293.3,74.5,293.7z"/>
		<path class="st41" d="M74.3,294c-0.5,0.3-1.5,0.5-2.6,0.1c-1.1-0.4-2.4-1.3-3.3-1.3c0.1,0.4,0.2,0.7,0.4,1.3
			c-0.4,0-0.7-0.1-0.7-0.1s-0.2-0.5-0.5-1.4c1.1,0,2,0.2,3.3,1c1.3,0.8,2.4,0.7,2.9,0.5c0.4-0.1,0.6-0.3,0.7-0.4
			C74.5,293.8,74.5,293.9,74.3,294z"/>
		<polygon class="st13" points="30.6,290.9 29.9,290.7 29.4,292.2 30.2,292.1 		"/>
		<path class="st18" d="M34.2,295.3c-0.1,0-0.4,0-0.8-0.1c-0.5-0.2-1.4-0.7-2.1-2.1c-0.6-1.4-1.2-2-2.1-2.7
			c1.2-3.9,4.7-14.8,5.9-20.8c1.5-7.3,2.7-16.4,4.9-23.1l6.5,1.6c0,0-1,3-2.2,8.1c-1.2,5.2-1.9,9.8-5.2,18.7
			c-2.8,7.6-5.7,15.7-5.7,16.5C33.2,293.3,34.3,294.8,34.2,295.3z"/>
		<path class="st42" d="M54.1,253.6c0.5-0.5,1.5-1.2,2.8-1.7c1.2-0.5,2.6-0.5,3.6-0.4c-0.7-3.1-1-4.5-1-4.5l-6.8,1.6
			C53.2,250.4,53.7,252,54.1,253.6z"/>
		<path class="st42" d="M46.2,248.9l-6.4-1.6c-0.5,1.5-0.9,3.1-1.3,4.8c2.1-0.2,3.4,0.1,4.8,0.6c0.7,0.2,1.2,0.6,1.6,0.9
			C45.7,250.7,46.2,248.9,46.2,248.9z"/>
		<path class="st43" d="M33.8,295.4c-0.5-0.1-1.5-0.5-2.1-1.5c-0.6-1-1.1-2.4-1.8-3c-0.1,0.3-0.2,0.7-0.4,1.2
			c-0.3-0.2-0.6-0.5-0.6-0.5s0.2-0.5,0.4-1.4c0.9,0.7,1.4,1.3,2.1,2.7c0.6,1.4,1.5,2,2.1,2.1c0.4,0.1,0.6,0.1,0.8,0.1
			C34.2,295.4,34.1,295.5,33.8,295.4z"/>
		<path class="st23" d="M43.9,224.9c-0.3,1.9-2.8,3.9-4.6,9.2c-1.8,5.3-2.3,16.8-2.3,16.8s4,0.9,12.6,0.7c8.4-0.2,11.6-1,11.6-1
			s0.1-5.2-1-13c-1.1-7.7-4.2-10.3-4.6-12.8L43.9,224.9z"/>
		<g>
			<path class="st5" d="M50,244.2c-5.1,0.1-9.3,0.1-12.5-0.1c-0.1,0.9-0.2,1.7-0.2,2.5c2.2,0.1,4.7,0.2,7.6,0.2c1.6,0,3.3,0,5.2-0.1
				c4.4-0.1,8-0.3,11-0.6c0-0.8-0.1-1.6-0.2-2.5C57.9,243.8,54.3,244,50,244.2z"/>
			<path class="st5" d="M50,239.3c-4.8,0.1-8.7,0.1-11.9-0.1c-0.1,0.8-0.2,1.7-0.3,2.5c2.1,0.1,4.5,0.2,7.2,0.2c1.6,0,3.3,0,5.2-0.1
				c4.2-0.1,7.7-0.3,10.6-0.5c-0.1-0.8-0.2-1.6-0.3-2.5C57.5,239,54,239.2,50,239.3z"/>
			<path class="st5" d="M50,234.5c-4.3,0.1-7.9,0.1-10.9,0c-0.2,0.7-0.4,1.6-0.6,2.5c1.9,0.1,4,0.1,6.4,0.1c1.6,0,3.3,0,5.2-0.1
				c3.9-0.1,7.2-0.3,9.9-0.5c-0.2-0.9-0.3-1.7-0.6-2.5C56.8,234.2,53.6,234.4,50,234.5z"/>
			<path class="st5" d="M50,229.6c-3.3,0.1-6.2,0.1-8.8,0c-0.4,0.7-0.8,1.5-1.2,2.5c1.5,0,3.1,0.1,4.9,0.1c1.6,0,3.3,0,5.2-0.1
				c3.3-0.1,6.2-0.2,8.7-0.4c-0.3-0.9-0.7-1.7-1.1-2.5C55.4,229.4,52.9,229.6,50,229.6z"/>
			<path class="st5" d="M43.9,224.9c-0.1,0.7-0.6,1.5-1.2,2.4c0.7,0,1.5,0,2.2,0c1.6,0,3.3,0,5.2-0.1c2.4-0.1,4.5-0.2,6.4-0.3
				c-0.5-0.9-0.8-1.6-0.9-2.3L43.9,224.9z"/>
			<path class="st5" d="M61.2,248.4c-3,0.2-6.8,0.5-11.2,0.6c-5.3,0.1-9.6,0-12.9-0.1c-0.1,1.2-0.1,2-0.1,2s3.1,0.7,9.7,0.7
				c1.1,0,2.2,0,3.3-0.1c0.5,0,1.1,0,1.6,0c6.9-0.3,9.5-1,9.5-1S61.2,249.8,61.2,248.4z"/>
		</g>
		<path class="st4" d="M53.8,211.3c0.7,0.5,2.2,5,2.2,5l1.9,0.3c0,0-1.2-3.1-2.1-4.1C54.8,211.5,53.8,211.3,53.8,211.3z"/>
		<path class="st4" d="M42.8,220.2l1-3.2c0,0,3.5-0.8,8.1-0.9c4.6-0.1,5.7,0.1,5.7,0.1s1.7,2,1,4c-0.7,2-2.5,2.4-2.5,2.4l-0.5,2.1
			c0,0-1.5,0.6-6,0.5c-4.5-0.1-5.8-0.3-5.8-0.3L42.8,220.2z"/>
		<path class="st37" d="M42,265.5c-0.2,0.6-0.9,1-1.6,0.8c-0.6-0.2-1-0.9-0.8-1.6c0.2-0.6,0.9-1,1.6-0.8
			C41.9,264.1,42.2,264.8,42,265.5z"/>
		<path class="st37" d="M63.5,264.9c0.2,0.6-0.1,1.3-0.8,1.6c-0.6,0.2-1.3-0.1-1.6-0.8c-0.2-0.6,0.1-1.3,0.8-1.6
			C62.6,264,63.3,264.3,63.5,264.9z"/>
		<path class="st4" d="M33.4,295.2c0.4,0.1,0.6,0.1,0.8,0.1c0.1-0.3-0.3-1-0.6-1.9c-1.1,0-1.6-0.8-1.6-0.8c-0.3-1.1-1.5-2.6-2.5-3.1
			c-0.1,0.3-0.2,0.5-0.2,0.8c0.9,0.7,1.4,1.3,2.1,2.7C32,294.5,32.9,295,33.4,295.2z"/>
		<path class="st4" d="M73.8,294.1c0.4-0.1,0.6-0.3,0.7-0.4c-0.1-0.2-0.6-0.5-1.3-0.9c-1,0.7-1.8,0.3-1.8,0.3
			c-0.9-0.8-2.9-1.4-4-1.2c0.1,0.2,0.2,0.5,0.2,0.7c1.1,0,2,0.2,3.3,1C72.2,294.4,73.3,294.3,73.8,294.1z"/>
		<path class="st44" d="M50.1,232.6c3.8,2.2,7.3,3.9,10.2,5.2c0-0.1,0-0.2,0-0.2c-0.3-1.8-0.6-3.3-1-4.6c-5.6-2.7-12-7.2-14.5-10.6
			c-0.4-0.5-1-1.4-1.3-1.8c-0.2-0.1-0.4-0.2-0.6-0.4l0,0.1l1.1,4.7c-0.1,0.7-0.6,1.4-1.1,2.4C44.8,229.2,47.3,231,50.1,232.6z"/>
		<g>
			<polygon class="st45" points="85,243 69.3,243 66.3,221.8 88,221.8 			"/>
			<path class="st8" d="M66.5,221.8c0,0.2-0.1,0.3-0.1,0.5l1.1,8c1.9,3.4,5.6,5.7,9.7,5.7c4,0,7.5-2.1,9.5-5.3l1.3-8.9H66.5z"/>
			<ellipse class="st46" cx="77.2" cy="221.8" rx="11.2" ry="11.2"/>
			
				<ellipse transform="matrix(1 -3.443745e-03 3.443745e-03 1 -0.7632 0.2673)" class="st47" cx="77.2" cy="221.8" rx="8.9" ry="8.9"/>
			<path class="st48" d="M73.1,225.1c0,0.7-0.5,1.2-1.2,1.2c-0.7,0-1.2-0.5-1.2-1.2c0-0.7,0.5-1.2,1.2-1.2
				C72.5,223.9,73.1,224.4,73.1,225.1z"/>
			<circle class="st48" cx="81" cy="227.6" r="0.9"/>
			<path class="st48" d="M77.2,227.6c0,0.9-0.8,1.7-1.7,1.7s-1.7-0.8-1.7-1.7c0-0.9,0.8-1.7,1.7-1.7S77.2,226.7,77.2,227.6z"/>
			<g>
				<g>
					<path class="st49" d="M72.8,222.1c-0.7-5.4-2.8-19.2-5.6-26.9c-3.5-9.8-15.5-14.2-17-9.2c-1.5,5.1,7.3,6.5,12.3,9.4
						c4,2.3,7,20.2,7.9,26.8H72.8z"/>
					<path class="st50" d="M72.8,222.1c-0.7-5.4-2.8-19.2-5.6-26.9c-3.5-9.8-15.5-14.2-17-9.2c-1.5,5.1,7.3,6.5,12.3,9.4
						c4,2.3,7,20.2,7.9,26.8H72.8z"/>
				</g>
				<g>
					<path class="st49" d="M87.4,182.2c-2.3-3.6-10.8,2.8-11.3,11.4c-0.5,8.6,2.3,24.6,2.3,24.6l1.9-0.4c0,0-3.6-21.8-0.4-25.3
						C83.1,189.1,89.8,185.9,87.4,182.2z"/>
					<path class="st50" d="M87.4,182.2c-2.3-3.6-10.8,2.8-11.3,11.4c-0.5,8.6,2.3,24.6,2.3,24.6l1.9-0.4c0,0-3.6-21.8-0.4-25.3
						C83.1,189.1,89.8,185.9,87.4,182.2z"/>
				</g>
				<g>
					<g>
						<linearGradient id="SVGID_2_" gradientUnits="userSpaceOnUse" x1="77.4192" y1="199.1967" x2="70.0642" y2="216.4775">
							<stop  offset="0" style="stop-color:#35B699"/>
							<stop  offset="1" style="stop-color:#298E8D"/>
						</linearGradient>
						<path class="st51" d="M76.4,223.7c0.8-2.5,2.8-9.5,1.4-17.1c-1.7-9.3-5.5-13.9-7.2-13.4c-1.5,0.5,2.7,25.7,3.5,30.4H76.4z"/>
					</g>
				</g>
				<g>
					<g>
						<path class="st5" d="M80.9,223.7c5.2-9.6,19.6-36.3,17.9-37.5c-2.1-1.5-9.5,2.9-16.3,14.9c-5.5,9.6-5.7,19.3-5.5,22.7H80.9z"
							/>
					</g>
				</g>
				<g>
					<g>
						<linearGradient id="SVGID_3_" gradientUnits="userSpaceOnUse" x1="104.2566" y1="198.0702" x2="93.3872" y2="223.608">
							<stop  offset="0" style="stop-color:#35B699"/>
							<stop  offset="1" style="stop-color:#298E8D"/>
						</linearGradient>
						<path class="st52" d="M118.5,199.8c-1.1-2.5-10.7-2.5-23.8,4.7c-10.4,5.7-15.4,16.4-17.1,20.6h5.6
							C94.8,217.7,119.4,201.7,118.5,199.8z"/>
					</g>
				</g>
				<g>
					<g>
						<linearGradient id="SVGID_4_" gradientUnits="userSpaceOnUse" x1="68.0232" y1="209.8307" x2="64.8229" y2="217.3499">
							<stop  offset="0" style="stop-color:#35B699"/>
							<stop  offset="1" style="stop-color:#298E8D"/>
						</linearGradient>
						<path class="st53" d="M73.5,222.1c-0.2-1.5-1.2-6.5-5-10.8c-4.5-5.2-8.6-6.7-9.4-5.7c-0.7,0.7,7.3,11.4,11.1,16.5H73.5z"/>
					</g>
				</g>
			</g>
		</g>
		<path class="st8" d="M69.3,243c-0.1-1.8-0.9-6.4-0.9-6.4l2-0.1C72.2,238,71.6,241.7,69.3,243z"/>
		<g>
			<path class="st18" d="M40.8,216.3c-0.2,3.4,4.5,9.3,10.7,13.7c6.1,4.4,11.4,7.4,14.5,8.8c3.1,1.4,4.5,1.9,4.8,1.4
				c0.1-0.2-0.3-0.4-0.7-0.6c0.4,0.1,0.9,0.1,1-0.1c0.1-0.2-0.3-0.5-0.7-0.7c0.4,0.1,0.9,0.2,1.1-0.1c0.1-0.3-0.4-0.6-0.9-0.8
				c0.4,0.1,0.8,0.2,0.9-0.1c0.2-0.4-2.1-1.3-2.8-1.6c0.3,0.1,1,0.3,1.3,0.4c0.2,0.1,0.5-0.2,0.5-0.3c0-0.1-0.1-0.2-0.7-0.5
				c-1.1-0.5-3.6-1.3-8.9-4.6c-5.4-3.3-11.3-8.5-13.5-12.2c-0.3-0.5-0.8-1.5-1.1-2C44.6,216.1,41,212.8,40.8,216.3z"/>
			<path class="st37" d="M51.9,230.3c0.7,0.5,1.4,1,2,1.4c0.1-0.1,0.1-0.1,0.1-0.2c0.3-0.6,0.1-1.4-0.5-1.7
				C52.9,229.5,52.2,229.7,51.9,230.3z"/>
			<path class="st16" d="M65.3,234c-0.3,0.9-0.9,2.4-1.7,3.6c0.3,0.1,0.5,0.3,0.8,0.4c0.2-0.4,0.5-0.7,0.7-1.1
				c0.5-0.9,0.8-1.9,1-2.5C65.9,234.3,65.6,234.2,65.3,234z"/>
		</g>
		<path class="st54" d="M44.3,212.1c-2.1,1-3.8,2.4-3.5,4.7c0.3,2.4,1.4,3.8,1.4,3.8s0.7-1.3,2-1.9c1.3-0.6,2.1-0.5,2.4-0.5
			C46.6,218,44.3,212.1,44.3,212.1z"/>
	</g>
	<path class="st0" d="M392.2,310H160.4c-0.8,0-1.5,0.7-1.5,1.5l0,0c0,0.8,0.7,1.5,1.5,1.5h231.9c0.8,0,1.5-0.7,1.5-1.5l0,0
		C393.7,310.6,393.1,310,392.2,310z"/>
	<g>
		<path class="st18" d="M178,299.8c-1.3,1.1-3.6,3.1-4.8,4c-0.4,0.3-0.4,0.8-0.2,1.2c0.9,1.5,3.3,5,6,5c2.6,0,2.2,0,2.2,0
			s-0.1-0.8-0.8-1c-0.5-0.2-1.2-1.5-1.7-2.4c-0.2-0.5-0.1-1,0.3-1.3l2.6-2.1L178,299.8z"/>
		<path class="st55" d="M209.3,267.3c-1.5,3.3-6.9,18.5-13.8,26.2c-7.1,7.9-13.1,10.9-13.1,10.9c-1.9-0.8-3.9-3.8-4.4-4.5
			c0,0,9-7.3,13-14.5c4-7.2,9.1-21.5,9.1-21.5L209.3,267.3z"/>
		<path class="st18" d="M223.3,309.9h-8c-0.4,0-0.8-0.3-0.8-0.8c0-0.9-0.2-2.6-0.4-4.6c1.9-0.1,4.6-0.5,4.6-0.5l0.2,2.9
			c0,0.4,0.3,0.8,0.7,1c0.9,0.3,2.5,0.9,3,1.1C223.4,309.4,223.3,309.9,223.3,309.9z"/>
		<path class="st3" d="M220,303.9l-1.3,0.2c0,0-3,0.7-4.9,0.7c-0.4-4.1-1.3-11.8-3-15.9c-2.9-7.2-10.3-12.6-14.7-16.7
			c-4-3.7-4.2-7.4-1.6-11.9l10.8,6.5c0,0,7.5,5.5,11.3,15.7C220.4,292.4,220,303.9,220,303.9z"/>
		<g>
			<path class="st56" d="M242,268.7c0,0,0.6-1.5-1.6-3.5c-2-1.7-10.2-7.7-12.4-9.2c-1.8,0.4-3.7,0.8-5.5,1c2,4.5,12.3,7.9,13.7,8.7
				c1.6,0.9,2.4,1.2,3,1.8c0.6,0.5,0.7,1.2,1,1.1c0.2,0,0.1-0.9,0.1-0.9c0.2,0.2,0.3,1.4,0.6,1.2c0.3-0.1,0-1.1,0-1.1
				c0.3,0.3,0.2,1.2,0.5,1.3c0.3,0,0.3-1,0.3-1L242,268.7z"/>
		</g>
		<g>
			<g>
				<g>
					<path class="st57" d="M251.5,264.8l-6.3,22.1l-20.7,10.1c-1.5-3.1-2.3-6.5-2.3-10.1c0-12.7,10.3-23,23-23
						C247.4,264,249.5,264.3,251.5,264.8z"/>
					<path class="st27" d="M263.4,273l-18.2,14l6.3-22.1C256.3,266.2,260.5,269.1,263.4,273z"/>
					<path class="st58" d="M268.2,286.9c0,2.6-0.5,5.3-1.2,7.6l-21.8-7.5C245.2,287,260.8,287,268.2,286.9z"/>
					<path class="st59" d="M266.9,294.5c-3.1,9-11.7,15.5-21.8,15.5c-9.1,0-16.9-5.3-20.7-12.9l20.7-10.1L266.9,294.5z"/>
					<path class="st3" d="M268.2,287h-23l18.2-14C266.4,276.8,268.2,281.7,268.2,287z"/>
				</g>
			</g>
		</g>
		<path class="st4" d="M221.1,242.9c1.4,3.5,1.9,10.2,6.9,13l-4.2,4l-7.8-4.6L221.1,242.9z"/>
		<g>
			<path class="st18" d="M213.2,242.3c0.8,2.8,4.2,4,5.1,3.9c1.6-0.1,0.9,0.4,1.9-0.5c-0.2-3-0.5-3.7,0.1-4.7c0.7-1.2,5.6-6,5.6-6
				l-4.2-3.8c0,0-4.8,4.9-5.7,5.6c-0.5,0.4-2.4,0.6-3.3,0.9C212.3,239.3,212.7,240.7,213.2,242.3z"/>
			
				<linearGradient id="SVGID_5_" gradientUnits="userSpaceOnUse" x1="4903.0239" y1="-4422.9355" x2="4902.2861" y2="-4414.6357" gradientTransform="matrix(0.7343 0.6788 -0.6788 0.7343 -6378.8564 153.2421)">
				<stop  offset="0" style="stop-color:#E9A688"/>
				<stop  offset="1" style="stop-color:#F5CFBF;stop-opacity:0"/>
			</linearGradient>
			<path class="st60" d="M220.1,241.3c0-0.1,0.1-0.2,0.1-0.3c0.7-1.2,5.6-6,5.6-6l-4.2-3.8c0,0-4.8,4.9-5.7,5.6
				c-0.1,0.1-0.3,0.2-0.5,0.2L220.1,241.3z"/>
			<path class="st8" d="M221.8,238.1c0.2,0.2,0.4,0.3,0.5,0.4c1.6-1.8,3.1-3.4,3.1-3.4l-3.1-2.6
				C220.8,234.5,220.4,236.8,221.8,238.1z"/>
			<path class="st13" d="M222.9,226.5c-1.3,0.8-3,1.5-2.3,5.7l2,0.5l1-4.2L222.9,226.5z"/>
			<path class="st18" d="M228.5,235.1c-0.9,1.4-2.1,3.1-3.4,3.4c-0.8,0.2-1.5-0.2-2.7-1.5c-1.2-1.2-1.6-3.5-0.2-5.8
				c1.5-2.3,3.2-3.8,5.7-2.3C230.8,230.7,230,232.8,228.5,235.1z"/>
			<path d="M227.9,233.7c-0.1,0.1-0.3,0.2-0.4,0.1c-0.1-0.1-0.2-0.3-0.1-0.4c0.1-0.1,0.3-0.2,0.4-0.1
				C227.9,233.4,228,233.6,227.9,233.7z"/>
			<g>
				<path class="st61" d="M222.8,233.7c-0.9-0.6-1.2-1.8-0.6-2.7c0.6-0.9,1.8-1.2,2.7-0.6L222.8,233.7z"/>
				<path class="st37" d="M223.3,232.9c-0.5-0.3-0.6-0.9-0.3-1.4c0.3-0.5,0.9-0.6,1.4-0.3L223.3,232.9z"/>
			</g>
			<path class="st37" d="M226.8,234.8c-0.3,0.4-0.8,0.5-1.2,0.3c-0.4-0.3-0.5-0.8-0.3-1.2c0.3-0.4,0.8-0.5,1.2-0.3
				C226.9,233.9,227.1,234.4,226.8,234.8z"/>
			<path class="st18" d="M228.8,234l0.2,2c0,0.2-0.2,0.4-0.4,0.3l-1-0.4L228.8,234z"/>
			<path class="st13" d="M224.6,230.8l-0.8,1.3l0.4,0.3c0.2-0.3,0.8-1.1,0.9-1.3L224.6,230.8z"/>
			<path class="st13" d="M230.4,228.3c-0.7-1.3-1.7-0.2-2.4-2.1c-1.2-3.6-5-3.5-6.2-2.1c-0.8,0.9-2.9,0-3.2,2.4
				c-0.2,2.2,5.3,4.7,6.1,4.8c1.1,0.2,2.1-0.6,3.2-1.7c0,0,0.9,0.1,1.9,1.9C230.8,231.4,231.5,230.3,230.4,228.3z"/>
			<path class="st37" d="M227.2,232.3c0.2,0,0.3,0,0.5,0.1c0.1,0.1,0.3,0.1,0.4,0.2c0.1,0.1,0.3,0.2,0.4,0.3
				c0.1,0.1,0.1,0.1,0.2,0.2c0,0,0,0.1,0.1,0.1l0,0.1l0,0l0,0c0,0,0,0,0,0c0,0-0.1,0-0.1,0c0,0,0.1,0,0.1,0c0,0,0,0.1,0,0.1
				c0,0-0.1,0-0.1,0l0,0l0,0l0,0l0,0c0,0-0.1,0-0.1-0.1l-0.2-0.1c-0.1-0.1-0.2-0.1-0.4-0.2c-0.3-0.1-0.5-0.3-0.8-0.4l0,0
				C227.1,232.5,227.1,232.4,227.2,232.3C227.2,232.3,227.2,232.3,227.2,232.3z"/>
			<path class="st37" d="M227.1,236.7c0.1,0.1,0.1,0.1,0.2,0.2c-0.1,0.1-0.1,0.1-0.2,0.2c-0.1-0.1-0.2-0.1-0.3-0.2
				c-0.3-0.3-0.5-0.6-0.3-0.7C226.6,236.1,226.8,236.4,227.1,236.7z"/>
		</g>
		<path class="st4" d="M220.2,241.1c0,0-0.7,1.3-3.1,0c-2.4-1.2-3.4-3.9-3.4-3.9s-6.5,1.1-13.3,11.5c-3.6,5.6-6.8,12.3-6.8,12.3
			s4.2,6.3,16,6.6c1.4-2.7,4.2-8.3,9.4-13.9C222,250.5,223.1,246.5,220.2,241.1z"/>
		<path class="st36" d="M221.1,243.1c1.7,3.5,0.8,12.8,0.8,12.8l-2.3-3.1C220.5,251.3,221.2,245.4,221.1,243.1z"/>
		<path class="st62" d="M234.6,273.8c0,0-3.4-1.4-7.6-0.3c0,0,1.8-2.5,3.2-3.3C231.5,269.3,234.6,273.8,234.6,273.8z"/>
		<path class="st36" d="M207.8,243.4c0.1,4.4,2.2,15.7,5,18.2l3.5-5L207.8,243.4z"/>
		<path class="st18" d="M207.8,242.7c-1,3.5,4,9.9,9.5,16c5.5,6.1,10.4,10.5,13.3,12.7c2.9,2.2,4.4,3.1,4.7,2.6
			c0.2-0.2-0.2-0.5-0.6-0.8c0.4,0.2,0.9,0.3,1.1,0.1c0.2-0.2-0.2-0.6-0.6-0.9c0.4,0.2,0.9,0.4,1.1,0.2c0.2-0.3-0.3-0.7-0.8-1.1
			c0.4,0.2,0.9,0.4,1,0.1c0.3-0.4-1.9-1.9-2.6-2.3c0.3,0.2,0.9,0.6,1.3,0.7c0.2,0.1,0.5-0.1,0.6-0.2c0.1-0.1-0.1-0.3-0.6-0.6
			c-1-0.8-3.1-2.5-8.1-7.2c-4.9-4.7-9-12.6-10.9-16.8C213.5,239.1,208.9,239,207.8,242.7z"/>
		<path class="st37" d="M218.2,259.5c0.6,0.7,1.2,1.3,1.8,2c0.1-0.1,0.1-0.1,0.2-0.2c0.5-0.6,0.4-1.4-0.2-1.9
			C219.4,259,218.6,259,218.2,259.5z"/>
		<path class="st63" d="M219.3,260.9c1.7-0.6,3.6-2.4,4.2-3.1c-3.2-4.3-5.7-9.4-7.1-12.5c-2.9-6.4-7.5-6.5-8.6-2.7
			c-1,3.6,4,9.9,9.6,16.1C218,259.5,218.7,260.2,219.3,260.9z"/>
		<path class="st4" d="M222.7,309.1c-0.5-0.2-2.1-0.8-3-1.1c-0.2-0.1-0.4-0.2-0.5-0.4c-0.3,0.2-0.6,0.4-1.1,0.4
			c-0.8,0.1-2.8-0.1-3.6-0.2c0,0.5,0.1,1,0.1,1.3c0,0.4,0.4,0.8,0.8,0.8h8C223.3,309.9,223.4,309.4,222.7,309.1z"/>
		<path class="st4" d="M223.2,309.5h-8c-0.3,0-0.6-0.2-0.7-0.4c0,0.1,0,0.1,0,0.1c0,0.4,0.4,0.8,0.8,0.8h8
			C223.3,309.9,223.3,309.7,223.2,309.5z"/>
		<path class="st4" d="M181.2,310c0,0-0.1-0.8-0.8-1c-0.5-0.2-1.2-1.5-1.7-2.4c-0.1-0.2-0.1-0.3-0.1-0.5c-2.1,0.3-3.2-1.1-4.4-3
			c-0.4,0.3-0.7,0.6-1,0.8c-0.4,0.3-0.4,0.8-0.2,1.2c0.9,1.5,3.3,5,6,5C180.8,310,181.2,310,181.2,310z"/>
		<path class="st4" d="M179.3,309.6c-2.7,0-5.1-3.5-6-5c-0.1-0.2-0.2-0.5-0.1-0.8c0,0,0,0,0,0c-0.4,0.3-0.4,0.8-0.2,1.2
			c0.9,1.5,3.3,5,6,5c1.8,0,2.2,0,2.2,0c0,0,0-0.2-0.1-0.4C180.8,309.6,180.2,309.6,179.3,309.6z"/>
	</g>
	<g>
		<path class="st64" d="M497.1,301.7c1.1,1.3,1.7,1.6,2.6,2.6c0.3,0.3,0.3,0.9,0,1.2c-1.1,1.4-4,4.4-6.7,4c-2.6-0.4-2.2-0.3-2.2-0.3
			s0.2-0.8,1-0.9c0.5-0.1,1.4-1.3,2-2.1c0.3-0.4,0.3-1-0.1-1.4l-2.2-2.4L497.1,301.7z"/>
		<path class="st65" d="M469.4,262c0.9,3.5,4.4,20.1,10,28.7c5.8,8.9,13.6,14,13.6,14c2-0.5,3.5-2.5,4.2-3c0,0-9.2-10.6-12.1-18.4
			c-1.6-4.4-3.6-12.5-4.3-16.2c1-4.3,1.2-7.3,1.2-7.3L469.4,262z"/>
		<path class="st64" d="M442.9,309.5l9.1,0.1c0.5,0,0.9-0.4,0.9-0.8c0.1-1,0.2-3.6,0.5-5.9c-2.2-0.1-5.3-0.3-5.3-0.3l-0.2,3.8
			c0,0.5-0.4,0.9-0.9,1.1c-1.1,0.4-2.9,1-3.5,1.2C442.8,308.9,442.9,309.5,442.9,309.5z"/>
		<path class="st66" d="M447.5,305.4c0,0,4.6,0.4,6.5,0.6c0.7-4,3.7-14.6,4.9-18.3c2.5-7.3,8.8-15.9,13.4-18.8
			c4-2.5,7.2-6.3,7.5-8.5l-11.8-6.9c0,0-11.1,12.8-15.6,27.2C449.4,290.8,447.5,305.4,447.5,305.4z"/>
		<g>
			<path class="st56" d="M450.6,208.8c0,0,1.3-1,3.7,0.8c2.1,1.5,13.3,11.5,15.3,13.3c0,1.9,0.1,3.8,0.2,5.6
				c-4.8-1-14-13.5-15.1-14.7c-1.2-1.3-1.7-2.1-2.4-2.6s-1.3-0.4-1.3-0.7c0-0.2,0.9-0.3,0.9-0.3c-0.3-0.1-1.4,0-1.3-0.3
				c0.1-0.3,1.1-0.3,1.1-0.3c-0.4-0.2-1.2,0.1-1.3-0.2c-0.1-0.2,0.9-0.5,0.9-0.5L450.6,208.8z"/>
		</g>
		
			<rect x="440.4" y="183.5" transform="matrix(0.6331 -0.7741 0.7741 0.6331 6.6735 414.568)" class="st4" width="0.5" height="33.4"/>
		<path class="st4" d="M484.1,231c-4.3-1.8-7.7-3.1-10.7-5.2c-1.2-0.8-10.1-9-11.8-10.2l-2.4,3.6c1.7,1.7,14.6,14,16.9,14.9
			L484.1,231z"/>
		<g>
			<path class="st18" d="M486.4,237.1c-2.8,0.7-5.6-1.7-6-2.5c-0.7-1.4-0.8-0.5-0.5-1.9c2.7-1.3,3.4-1.4,4.1-2.4
				c0.7-1.2,2.4-7.9,2.4-7.9l5.4,1.7c0,0-1.8,6.6-2,7.7c-0.1,0.7,0.7,2.3,0.9,3.3C489.4,236.4,488.1,236.7,486.4,237.1z"/>
			
				<linearGradient id="SVGID_6_" gradientUnits="userSpaceOnUse" x1="-11943.8555" y1="-849.9942" x2="-11944.5928" y2="-841.6926" gradientTransform="matrix(-0.9548 -0.2973 -0.2973 0.9548 -11168.0313 -2515.6755)">
				<stop  offset="0" style="stop-color:#E9A688"/>
				<stop  offset="1" style="stop-color:#F5CFBF;stop-opacity:0"/>
			</linearGradient>
			<path class="st67" d="M483.9,230.6c0.1-0.1,0.1-0.2,0.2-0.3c0.7-1.2,2.4-7.9,2.4-7.9l5.4,1.7c0,0-1.8,6.6-2,7.7
				c0,0.2,0,0.4,0.1,0.6L483.9,230.6z"/>
			<path class="st8" d="M485.7,227.5c-0.2-0.1-0.4-0.2-0.6-0.3c0.7-2.2,1.4-4.4,1.4-4.4l3.8,1.4
				C489.3,226.6,487.6,228.1,485.7,227.5z"/>
			<path class="st18" d="M485,220.2c-0.8,1.5-1.6,3.4-1.2,4.6c0.2,0.8,0.9,1.2,2.6,1.6c1.6,0.4,3.8-0.3,5.1-2.8s1.7-4.7-0.9-6.1
				C487.7,216,486.3,217.8,485,220.2z"/>
			<path class="st16" d="M495.7,221.6c1.1,3-2,3.5-1.4,6c-2.2,1.5-6.6,0.7-4.2-3.5l3.1-3L495.7,221.6z"/>
			<path d="M486.5,220.1c-0.1,0.1,0,0.3,0.1,0.4c0.1,0.1,0.3,0,0.4-0.1c0.1-0.1,0-0.3-0.1-0.4C486.8,219.9,486.6,220,486.5,220.1z"
				/>
			<g>
				<path class="st37" d="M489.1,224.5c1,0.5,2.1,0.1,2.6-0.8c0.5-1,0.1-2.1-0.8-2.6L489.1,224.5z"/>
				<path class="st38" d="M489.5,223.7c0.5,0.3,1.1,0.1,1.4-0.4c0.3-0.5,0.1-1.1-0.4-1.4L489.5,223.7z"/>
			</g>
			<path class="st37" d="M486.1,221.6c-0.2,0.4-0.1,0.9,0.4,1.2c0.4,0.2,0.9,0.1,1.2-0.4c0.2-0.4,0.1-0.9-0.4-1.2
				C486.9,221,486.3,221.1,486.1,221.6z"/>
			<path class="st18" d="M485.8,219.5l-1.8,0.8c-0.2,0.1-0.2,0.4-0.1,0.5l0.8,0.7L485.8,219.5z"/>
			<path class="st16" d="M490.7,221.4l-0.7,1.4l-0.5-0.2c0.2-0.3,0.6-1.2,0.7-1.5L490.7,221.4z"/>
			<path class="st16" d="M487.6,214.2c1.4-0.6,1.1,1.3,3,0.9c2.8-0.5,4.8,1.6,4.5,3.4c-0.2,1.2,2.7,2.8,0.5,4.9
				c-1.6,1.5-5.3-0.9-5.9-1.5c-0.7-0.9-1-1.4-0.7-2.9c0,0,0.3-1.8-1.7-1.7C486.4,216.9,485.5,215.2,487.6,214.2z"/>
			<path class="st37" d="M488,220.1c-0.3-0.1-0.5-0.3-0.8-0.4c-0.1-0.1-0.2-0.1-0.4-0.2l-0.2-0.1c0,0-0.1,0-0.1-0.1l-0.1,0l0,0l0,0
				l0,0c0,0-0.1-0.1-0.1-0.1c0,0,0.1-0.1,0.1-0.1c0,0,0.1,0.1,0.1,0.1c0,0,0-0.1,0-0.1c0,0,0,0,0,0l0,0l0,0l0.1,0c0,0,0.1,0,0.1,0
				c0.1,0,0.2,0,0.2,0.1c0.2,0,0.3,0.1,0.4,0.2c0.1,0.1,0.3,0.2,0.4,0.3c0.1,0.1,0.2,0.2,0.3,0.3C488.1,220,488.1,220.1,488,220.1
				C488,220.1,488,220.1,488,220.1L488,220.1z"/>
			<path class="st37" d="M484.4,222.2c-0.1,0-0.1,0-0.2-0.1c0,0.1-0.1,0.2-0.1,0.3c0.1,0,0.2,0.1,0.3,0.1c0.4,0.1,0.8,0.1,0.8-0.1
				C485.1,222.3,484.8,222.3,484.4,222.2z"/>
		</g>
		<path class="st4" d="M484.2,230.1c0,0-0.9,1.5,1.1,2.4c2.1,1,5.1,0.4,5.1,0.4s3,6.8-3.5,18.2c-3.3,5.8-4.8,10-4.8,10
			s-8.8,0-16.6-6.7c2.7-8,6.5-9.8,8.8-17C475.6,233.2,478,230.7,484.2,230.1z"/>
		<path class="st36" d="M485.5,240.3c-3.9,2-11,5.2-14.9,4.4c1.6-1.7,3.7-7.1,4.1-8.7L485.5,240.3z"/>
		<g>
			<path class="st18" d="M485.1,240.5c-3.5,1-9.9-3.8-16.1-9.2c-6.2-5.4-14.3-13.4-16.6-16.3c-2.2-2.9-3.1-4.3-2.7-4.7
				c0.2-0.2,0.5,0.2,0.8,0.6c-0.2-0.4-0.4-0.9-0.2-1.1c0.2-0.2,0.6,0.2,0.9,0.6c-0.3-0.4-0.5-0.9-0.2-1.1c0.3-0.2,0.7,0.3,1.1,0.8
				c-0.2-0.4-0.4-0.8-0.2-1c0.4-0.3,1.9,1.9,2.4,2.6c-0.2-0.3-0.6-0.9-0.8-1.3c-0.1-0.2,0-0.5,0.2-0.6c0.1-0.1,0.3,0.1,0.7,0.6
				c0.8,1,2.5,3.1,7.4,7.9c4.8,4.8,16.3,12,20.5,13.8C488.6,234.8,488.8,239.4,485.1,240.5z"/>
			<path class="st63" d="M457.8,221c0.6-1.7,2.5-3.1,3.1-3.7c5.1,5.3,18.3,13.4,21.4,14.7c6.4,2.8,6.6,7.4,2.8,8.5
				c-3.5,1-10-3.9-16.3-9.3C468.1,230.6,458.6,222.2,457.8,221z"/>
		</g>
		<path class="st4" d="M443.6,308.5c0.6-0.2,2.4-0.8,3.5-1.2c0.3-0.1,0.5-0.2,0.6-0.5c0.3,0.2,0.7,0.4,1.3,0.5c0.9,0.2,3.1,0,4-0.1
			c0,0.6-0.1,1.1-0.1,1.5c0,0.5-0.4,0.8-0.9,0.8l-9.1-0.1C442.9,309.5,442.8,308.9,443.6,308.5z"/>
		<path class="st68" d="M443,309l9,0.1c0.3,0,0.6-0.2,0.8-0.5c0,0.1,0,0.1,0,0.2c0,0.5-0.4,0.8-0.9,0.8l-9.1-0.1
			C442.9,309.5,442.8,309.2,443,309z"/>
		<path class="st4" d="M490.9,309.2c0,0,0.2-0.8,1-0.9c0.5-0.1,1.4-1.3,2-2.1c0.1-0.1,0.2-0.3,0.2-0.5c2.1,0.6,3.3-0.6,4.8-2.3
			c0.3,0.4,0.6,0.7,0.9,1c0.3,0.3,0.3,0.9,0,1.2c-1.1,1.4-4,4.4-6.7,4C491.4,309.3,491,309.3,490.9,309.2z"/>
		<path class="st68" d="M492.9,309.1c2.6,0.4,5.5-2.7,6.7-4c0.2-0.2,0.2-0.5,0.2-0.8c0,0,0,0,0,0c0.3,0.3,0.3,0.9,0,1.2
			c-1.1,1.4-4,4.4-6.7,4c-1.7-0.3-2.1-0.3-2.2-0.3c0,0,0-0.2,0.2-0.4C491.4,308.9,491.9,309,492.9,309.1z"/>
	</g>
	<path class="st26" d="M342.8,267.9c-2.7,0-4.9,2.2-4.9,4.9V310h9.8v-37.2C347.7,270.1,345.5,267.9,342.8,267.9z"/>
	<path class="st13" d="M141.9,152.7C141.9,152.7,141.9,152.7,141.9,152.7c-0.1,0-0.3-0.1-0.3-0.3l3.4-92.1c0-0.1,0.1-0.2,0.3-0.2
		c0.1,0,0.2,0.1,0.2,0.3l-3.4,92.1C142.1,152.6,142,152.7,141.9,152.7z"/>
	<g>
		<path class="st18" d="M145.8,56.7c-0.7,0.4-1.6,2-1.6,2s1.4,2.8,1.6,2.7c0.1,0,1.3-1.5,2-2.4L145.8,56.7z"/>
		<path class="st69" d="M143.5,57.2c1.3,0.8,2.9,1.8,2.8,2.9c0,1.2-0.3,2.4-0.3,2.4l-4.3-2.9L143.5,57.2z"/>
		<path class="st4" d="M137.6,28.8c0.4-0.3,1.2,0,1.2,0l-1.1,0.7L137.6,28.8z"/>
		<path class="st20" d="M134.2,90.5c0,0-0.4,1.2-0.2,1.6c0.2,0.3,0.6,0.3,3.2,0.3c2.6,0,5.4,0.3,5.5-0.2c0.1-0.5-0.7-0.6-2-1
			c-1.3-0.4-1.7-1-1.7-1L134.2,90.5z"/>
		<path class="st4" d="M142.6,91.9c-0.5,0.3-3.1,0.1-5.4,0.1c-2.6,0-3,0.1-3.2-0.3c0,0,0,0,0,0c0,0.2,0,0.3,0.1,0.4
			c0.2,0.3,0.6,0.3,3.2,0.3c2.6,0,5.4,0.3,5.5-0.2C142.8,92.1,142.7,92,142.6,91.9z"/>
		<path class="st20" d="M115.1,89.5c0,0-0.7,1.1-0.5,1.4c0.2,0.4,0.7,0.1,3.1,0.9c2,0.7,5.5,0.7,5.7,0.3c0.4-0.7-0.8-0.4-2-1
			c-1.2-0.6-1.4-1.3-1.4-1.3L115.1,89.5z"/>
		<path class="st4" d="M123.4,91.8c-0.5,0.3-3.7,0.3-5.6-0.3c-2.4-0.9-2.9-0.6-3.1-0.9c0,0,0-0.1,0-0.1c-0.1,0.2-0.1,0.4-0.1,0.6
			c0.2,0.4,0.7,0.1,3.1,0.9c2,0.7,5.5,0.7,5.7,0.3C123.5,92,123.5,91.9,123.4,91.8z"/>
		<path class="st13" d="M134.2,51.4c2.4,8.6,3.5,11.8,4.7,22.7c1.3,10.9,0.6,16.5,0.6,16.5c-1.1,0.4-4.6,0.4-5.7,0.2
			c0,0-0.8-10.7-1.7-16.8c-0.9-6.1-6.6-21.8-6.6-21.8L134.2,51.4z"/>
		<path class="st13" d="M121.8,44.6c-3.7,6.3-3.5,11-3.4,23.8c0.1,12-3.5,21.2-3.5,21.2c1.2,0.6,4.5,1.6,6.1,1.3
			c0,0,5.1-11,5.6-21.9c0.5-11.1,0.3-16.2,0.3-16.2l6.9-0.8L121.8,44.6z"/>
		<path class="st4" d="M130.8,31.5c-4,3.7-7.1,9.6-8.9,13.1c0,0,2.8,4.1,7.6,6c4.8,1.9,5,1.3,5,1.3s5.9-9.3,9.1-12.3
			c0,0-1.5-3.7-6.1-5.2C132.8,32.9,130.8,31.5,130.8,31.5z"/>
		<path class="st70" d="M129.1,34.5c-1.2,3.7-1,15.5-1,15.5s4.2,1.9,5.6,2l3.7-4.7c0,0-2.4-5.3-3.3-9.2S129.1,34.5,129.1,34.5z"/>
		<path class="st4" d="M136.6,29.6c-6.4,0.4-7.7,3.1-7.8,7.5c-0.2,4.4,0.7,9.9,4.5,15.7c3.6,5.4,8.8,7.4,8.8,7.4l2.1-3.2
			c0,0-3.7-2.3-6.6-6.3c-3.7-5.1-3.3-12.7-3.3-12.7l8.3,1.3c0,0,3.7,2.4,5,7.5c1.3,5.1-1.9,9.8-1.9,9.8l2.1,3.2c0,0,3.1-1.7,3.8-8.4
			c0.8-7.4-2.9-14.2-6-17.1C142.3,31.3,136.6,29.6,136.6,29.6z"/>
		<path class="st18" d="M141.4,33.1c0-0.5,0-0.6,0.2-1c0.4-0.9,4-4.3,4-4.3l-3-2.7c0,0-3.4,3.5-4.1,4c-0.4,0.3-1.4,0.4-2.1,0.6
			C136.2,30.8,138.7,33.7,141.4,33.1z"/>
		
			<linearGradient id="SVGID_7_" gradientUnits="userSpaceOnUse" x1="4704.123" y1="-4520.7603" x2="4703.5981" y2="-4514.8535" gradientTransform="matrix(0.7343 0.6788 -0.6788 0.7343 -6378.8564 153.2421)">
			<stop  offset="0" style="stop-color:#E9A688"/>
			<stop  offset="1" style="stop-color:#F5CFBF;stop-opacity:0"/>
		</linearGradient>
		<path class="st71" d="M141.5,32.2c0-0.1,0.1-0.1,0.1-0.2c0.5-0.8,4-4.3,4-4.3l-3-2.7c0,0-3.4,3.5-4.1,4c-0.1,0.1-0.2,0.1-0.4,0.2
			L141.5,32.2z"/>
		<path class="st8" d="M142.1,30.7c0.1,0.1,0.3,0.2,0.4,0.3c1.1-1.3,2.2-2.4,2.2-2.4l-2.2-1.9C141.4,28.1,141,29.8,142.1,30.7z"/>
		<path class="st18" d="M142.9,23.2c-1,1.6-2.3,4.7-0.6,6.3c2.8,2.7,4.7-0.7,6.1-2.9L142.9,23.2z"/>
		<path class="st4" d="M142.9,23.2c0,0,2.6,3.3,6.9,4.1c2.7,0.5,3.3-3.9,0.6-4.6c0,0-0.7-1.8-2.7-2.3
			C144.5,19.5,142.9,23.2,142.9,23.2z"/>
		<path class="st4" d="M141.8,25.1l1-0.1l1.1-1.3l-0.3-1.6c0,0-0.8,1-1.1,1.6C142.1,24.3,141.8,25.1,141.8,25.1z"/>
		<polygon class="st4" points="144.2,24.3 143.7,25 144.1,25.2 144.7,24.6 		"/>
		<path d="M145.5,26.1c-0.1,0.1-0.2,0.1-0.2,0.1c-0.1-0.1-0.1-0.2-0.1-0.2c0.1-0.1,0.2-0.1,0.2-0.1C145.6,25.9,145.6,26,145.5,26.1z
			"/>
		<path class="st37" d="M144.6,26.7c-0.2,0.3-0.5,0.3-0.8,0.2c-0.3-0.2-0.3-0.5-0.2-0.8c0.2-0.3,0.5-0.3,0.8-0.2
			C144.7,26.1,144.8,26.5,144.6,26.7z"/>
		<path class="st37" d="M146.7,26.9l0,1.3c0,0.2-0.2,0.2-0.3,0.2l-0.6-0.3L146.7,26.9z"/>
		<g>
			<path class="st37" d="M143.1,25.9c-0.6-0.4-0.7-1.2-0.3-1.7c0.4-0.6,1.2-0.7,1.7-0.3L143.1,25.9z"/>
			<path class="st38" d="M143.4,25.4c-0.3-0.2-0.4-0.6-0.2-0.9c0.2-0.3,0.6-0.4,0.9-0.2L143.4,25.4z"/>
		</g>
		<path class="st72" d="M136.5,29.6c0.8-0.6,1.1-0.8,1.1-0.8s0.6,1.7,1.4,2.6c0.8,0.9,1.9,1.8,1.9,1.8s-1.9,0-3.2-1.1
			C136.3,31,136.5,29.6,136.5,29.6z"/>
		<path class="st72" d="M140.8,33.2l1.1-1.7l0.4,0.6c0,0-0.4,0.8-1,0.9C140.8,33.2,140.8,33.2,140.8,33.2z"/>
	</g>
	<rect x="114.2" y="92.4" class="st73" width="29.3" height="5.2"/>
	<g>
		<path class="st18" d="M214,69.2c-1,6.9-1.3,19.9-1.3,19.9l3.7,0.4c0,0,2.1-15,3-19.9L214,69.2z"/>
		<path class="st18" d="M232.7,69.1c1.1,6.9,1.6,19.9,1.6,19.9l-3.7,0.5c0,0-2.3-14.9-3.3-19.8L232.7,69.1z"/>
		<circle class="st37" cx="216.6" cy="71" r="1.2"/>
		<circle class="st37" cx="230.1" cy="71" r="1.2"/>
		<path class="st4" d="M214.7,46.7c-1.2,7.5-1.9,23.2-1.9,23.2s1.3,0.9,4.2,1c2.9,0.1,3.8-0.3,3.8-0.3l2.3-19c0-0.2,0.2-0.2,0.3,0
			l2.1,18.6c0,0,1,0.6,4.3,0.4c3.3-0.2,3.8-1.4,3.8-1.4s-0.3-15.3-2.9-21.6L214.7,46.7z"/>
		<path class="st19" d="M215.4,33.1c0,0-1.4,7.4-1.6,13.5c0,0,5.1,4.5,9.9,4.1c4.7-0.4,6.9-3.8,6.9-3.8l-1.8-15.4L215.4,33.1z"/>
		<path class="st8" d="M217.1,33.7c0.3,2.4,1.2,9.2,1.7,10.7s3.7,8.3,3.7,8.3s-5.6-7-6.2-9.4C215.9,40.9,217.1,33.7,217.1,33.7z"/>
		<path class="st8" d="M227.7,33c0,0,2.9,4.8,2.8,7.3c-0.1,2.5-1.1,7.1-1.9,9c-0.8,1.9-3,4.3-3,4.3s1.7-5.7,2.3-10.5
			C228.6,38.4,227.7,33,227.7,33z"/>
		<path class="st18" d="M212.3,38.8c0.5,7,5.9,14.6,10.2,17.1c4.3,2.5,2.2-1.6,1.4-2c-0.8-0.4-3.2-3.4-5.2-7.7
			c-2-4.3-1.9-7.5-1.9-7.5L212.3,38.8z"/>
		<path class="st18" d="M229.6,39.2c0.1,3.9-1.2,12.1-4.5,15.1c-3.3,3,1.1,2.6,3,0.8c1.8-1.8,5.4-7.2,5.6-15.9L229.6,39.2z"/>
		<path class="st19" d="M213.3,30.3c1-2.5,5.7-4.5,9.7-4.6c3.9-0.1,8.6,1.9,9.5,5.1c0.9,3.2,1.6,6.4,1.6,8.7c0,0-2.5,0.8-4.7,0.3
			c0-1.7-1-5.7-1.7-6.8h-10.1c-0.4,1.5-0.5,5.4-0.4,6.6c0,0-2.7,0.7-5.1,0.1C212.1,39.7,211.6,34.7,213.3,30.3z"/>
		<path class="st18" d="M220.9,23.7c0,0.9-0.1,2.1-0.4,3c0,0,2.1,2.1,2.8,2.1c0.8,0,2.5-2.2,2.5-2.2s-0.4-0.2-0.4-0.9
			c-0.1-0.7,0-1.8,0-1.8L220.9,23.7z"/>
		<path class="st8" d="M225.3,25.3c-0.1-1.7,0.2-3.5,0.2-3.5l-4.6,0c0,0-0.1,1.5-0.2,3.1c0.5,0.7,1.2,1.6,2.3,1.6
			C224.3,26.6,224.9,25.9,225.3,25.3z"/>
		<path class="st74" d="M226.5,21.1c0,2.3-1.4,4.2-3.3,4.2c-1.9,0-3.3-1.9-3.3-4.2s1.5-4.2,3.3-4.2C225,16.9,226.5,18.8,226.5,21.1z
			"/>
		<path d="M221.6,22.2c-0.1,0.1-0.2,0.1-0.2,0.1s-0.1-0.2-0.1-0.2c0.1-0.1,0.2-0.1,0.2-0.1C221.6,22,221.6,22.2,221.6,22.2z"/>
		<path d="M225,22.3c-0.1,0.1-0.2,0.1-0.2,0.1c-0.1-0.1-0.1-0.2-0.1-0.2s0.2-0.1,0.2-0.1C225,22.1,225,22.2,225,22.3z"/>
		<path class="st37" d="M221.4,23.2c-0.2,0.3-0.5,0.3-0.8,0.2c-0.3-0.2-0.3-0.5-0.2-0.8c0.2-0.3,0.5-0.3,0.8-0.2
			C221.5,22.6,221.6,23,221.4,23.2z"/>
		<path class="st37" d="M226,23.3c-0.2,0.3-0.5,0.3-0.8,0.2c-0.3-0.2-0.3-0.5-0.2-0.8c0.2-0.3,0.5-0.3,0.8-0.2
			C226,22.7,226.1,23.1,226,23.3z"/>
		<path class="st37" d="M223.4,22.3l0.4,1.2c0.1,0.1-0.1,0.3-0.2,0.3l-0.7-0.1L223.4,22.3z"/>
		<g>
			<path class="st37" d="M220.2,22.5c-0.7,0-1.3-0.5-1.3-1.2s0.5-1.3,1.2-1.3L220.2,22.5z"/>
			<path class="st38" d="M220.2,21.9c-0.4,0-0.7-0.3-0.7-0.6c0-0.4,0.3-0.7,0.6-0.7L220.2,21.9z"/>
		</g>
		<path class="st8" d="M220.5,19.6c0.7,1.6,1.7,2.6,2.5,2.8c0.7,0.1,1.1-0.3,1.1-0.3s0.8,0.9,1.4,0.9s0.7-0.1,0.7-0.1
			s0.4-1.3,0.5-2.1C226.7,20.1,220.5,19.6,220.5,19.6z"/>
		<g>
			<path class="st37" d="M226.3,22.5c0.7,0,1.3-0.5,1.3-1.2c0-0.7-0.5-1.3-1.2-1.3L226.3,22.5z"/>
			<path class="st38" d="M226.3,21.9c0.4,0,0.7-0.3,0.7-0.6c0-0.4-0.3-0.7-0.6-0.7L226.3,21.9z"/>
		</g>
		<path class="st4" d="M223.9,20.8c1.3,0.9,2.3,0.9,2.8,0.3c0.7-0.9,0.7-3.8-0.8-5c-0.9-0.7-1.4-1.2-2.2-1.3c-1.1,0-1.5,0.2-2.8,1
			c-1.3,0.8-1.2,3.3-1.2,4.1l0.3,0.1l0.1,1.2c0,0,0.2,0.3,0.3,0.2c0-0.1,0.1-1.9,0.1-1.9s1.3,1.6,2.2,1.6
			C223.6,21.3,223.9,20.8,223.9,20.8z"/>
		<g>
			<path class="st75" d="M212.6,88c0,0,0.7,0.5,2,0.5c1.3,0,2-0.5,2-0.5l-0.1,3.5l-4.8-0.2C212.1,90.5,212.5,88.4,212.6,88z"/>
			<path class="st19" d="M212,90.3c1.2-0.4,1.6-0.5,2.7-0.6c1.4-0.1,1.8,0.7,1.8,0.7l0.1,1.3c0,0.4-0.3,0.8-0.7,0.8h-4.3
				c-0.3,0-0.5-0.3-0.4-0.6L212,90.3z"/>
			<path class="st11" d="M216,92h-4.3c-0.2,0-0.3-0.1-0.4-0.3l-0.1,0.1c-0.1,0.3,0.1,0.6,0.4,0.6h4.3c0.4,0,0.8-0.4,0.7-0.8l0-0.1
				C216.5,91.8,216.2,92,216,92z"/>
		</g>
		<g>
			<path class="st75" d="M234.3,88c0,0-0.7,0.5-2,0.5c-1.3,0-2-0.5-2-0.5l0.1,3.5l4.8-0.2C234.8,90.5,234.3,88.4,234.3,88z"/>
			<path class="st19" d="M234.9,90.3c-1.2-0.4-1.6-0.5-2.7-0.6c-1.4-0.1-1.8,0.7-1.8,0.7l-0.1,1.3c0,0.4,0.3,0.8,0.7,0.8h4.3
				c0.3,0,0.5-0.3,0.4-0.6L234.9,90.3z"/>
			<path class="st11" d="M230.9,92h4.3c0.2,0,0.3-0.1,0.4-0.3l0.1,0.1c0.1,0.3-0.1,0.6-0.4,0.6H231c-0.4,0-0.8-0.4-0.7-0.8l0-0.1
				C230.4,91.8,230.6,92,230.9,92z"/>
		</g>
	</g>
	<path class="st13" d="M231.6,167.9c-0.1,0-0.2-0.1-0.3-0.2L224.3,55c0-0.1,0.1-0.3,0.2-0.3c0.1,0,0.3,0.1,0.3,0.2l7.1,112.7
		C231.9,167.8,231.8,167.9,231.6,167.9C231.6,167.9,231.6,167.9,231.6,167.9z"/>
	<path class="st19" d="M461.3,85.2c-2.4,0-4.3-1.9-4.3-4.3s1.9-4.3,4.3-4.3c0.1,0,0.2,0,0.4,0c0.9-2.5,3.3-4.3,6.1-4.3
		c2.8,0,5.2,1.8,6.1,4.3c0.2,0,0.4,0,0.5,0c0.7,0,1.3,0.2,1.9,0.4c0.9-1.7,2.8-2.9,4.9-2.9c3.1,0,5.5,2.5,5.5,5.5
		c0,3.1-2.5,5.5-5.5,5.5H461.3z"/>
	<path class="st19" d="M77.4,75.7c4.5,0,8.2-3.7,8.2-8.2c0-4.5-3.7-8.2-8.2-8.2c-1,0-1.9,0.2-2.8,0.5c-1.4-5.4-6.4-9.5-12.3-9.5
		c-5.7,0-10.5,3.8-12.1,8.9c-1.3-0.8-2.9-1.3-4.5-1.3c-4.9,0-8.8,4-8.8,8.8c0,4.9,4,8.8,8.8,8.8H77.4z"/>
	<path class="st19" d="M279.9,27.5c2.3,0,4.2-1.9,4.2-4.2c0-2.3-1.9-4.2-4.2-4.2c-0.5,0-1,0.1-1.4,0.3c-0.7-2.8-3.2-4.8-6.2-4.8
		c-2.9,0-5.3,1.9-6.2,4.5c-0.7-0.4-1.5-0.6-2.3-0.6c-2.5,0-4.5,2-4.5,4.5c0,2.5,2,4.5,4.5,4.5H279.9z"/>
</g>
</svg>
