<svg width="1924" height="630" viewBox="0 0 1924 630" fill="none" xmlns="http://www.w3.org/2000/svg">
<g filter="url(#filter0_d_3339_3268)">
<path fill-rule="evenodd" clip-rule="evenodd" d="M464.002 84.0841C509.554 133.178 534.045 197.428 532.426 263.593C530.808 329.758 503.203 392.797 455.302 439.721L268.258 622L104.432 462.383V311.193L104.746 256.821C105.252 168.974 177.858 97.5688 268.238 97.5688C292.799 97.5743 317.043 102.971 339.17 113.359C361.296 123.746 380.737 138.858 396.047 157.57C411.358 176.283 422.145 198.116 427.608 221.448C433.07 244.78 433.068 269.011 427.601 292.342C422.134 315.673 411.342 337.504 396.028 356.214C380.714 374.924 361.27 390.032 339.142 400.415C317.013 410.799 292.768 416.191 268.207 416.192C243.646 416.193 219.401 410.802 197.271 400.421V332.268C214.974 348.1 237.717 357.534 261.699 358.994C285.681 360.455 309.452 353.854 329.041 340.294C348.63 326.734 362.852 307.036 369.33 284.49C375.808 261.943 374.151 237.913 364.636 216.414C355.12 194.915 338.322 177.247 317.047 166.362C295.773 155.477 271.309 152.034 247.743 156.608C224.177 161.182 202.934 173.495 187.564 191.492C172.193 209.489 163.625 232.079 163.29 255.491V437.907L268.258 540.195L413.338 398.824C451.644 361.244 473.142 310.427 473.142 257.462C473.142 204.496 451.644 153.68 413.338 116.1L413.257 116.021C333.499 38.3074 202.906 38.3961 123.168 116.09C69.5507 168.284 51.9582 242.923 70.441 309.892V428.592C-21.5682 327.675 -18.0376 171.823 81.1745 75.193C184.079 -25.0643 352.407 -25.0643 455.302 75.193L464.002 83.6701V84.0841Z" fill="#2DC3C3"/>
</g>
<g filter="url(#filter1_d_3339_3268)">
<path d="M683.071 220.65V297H642.721V80.1H713.371C727.871 80.1 740.421 81.8 751.021 85.2C761.621 88.6 770.371 93.35 777.271 99.45C784.171 105.55 789.271 112.85 792.571 121.35C795.871 129.85 797.521 139.15 797.521 149.25C797.521 159.75 795.771 169.4 792.271 178.2C788.771 186.9 783.521 194.4 776.521 200.7C769.521 207 760.771 211.9 750.271 215.4C739.771 218.9 727.471 220.65 713.371 220.65H683.071ZM683.071 189.15H713.371C720.771 189.15 727.221 188.25 732.721 186.45C738.221 184.55 742.771 181.9 746.371 178.5C749.971 175 752.671 170.8 754.471 165.9C756.271 160.9 757.171 155.35 757.171 149.25C757.171 143.45 756.271 138.2 754.471 133.5C752.671 128.8 749.971 124.8 746.371 121.5C742.771 118.2 738.221 115.7 732.721 114C727.221 112.2 720.771 111.3 713.371 111.3H683.071V189.15ZM826.771 297V143.1H848.521C852.321 143.1 854.971 143.8 856.471 145.2C857.971 146.6 858.971 149 859.471 152.4L861.721 171C867.221 161.5 873.671 154 881.071 148.5C888.471 143 896.771 140.25 905.971 140.25C913.571 140.25 919.871 142 924.871 145.5L920.071 173.25C919.771 175.05 919.121 176.35 918.121 177.15C917.121 177.85 915.771 178.2 914.071 178.2C912.571 178.2 910.521 177.85 907.921 177.15C905.321 176.45 901.871 176.1 897.571 176.1C889.871 176.1 883.271 178.25 877.771 182.55C872.271 186.75 867.621 192.95 863.821 201.15V297H826.771ZM1014.93 140.7C1026.43 140.7 1036.83 142.55 1046.13 146.25C1055.53 149.95 1063.53 155.2 1070.13 162C1076.73 168.8 1081.83 177.1 1085.43 186.9C1089.03 196.7 1090.83 207.65 1090.83 219.75C1090.83 231.95 1089.03 242.95 1085.43 252.75C1081.83 262.55 1076.73 270.9 1070.13 277.8C1063.53 284.7 1055.53 290 1046.13 293.7C1036.83 297.4 1026.43 299.25 1014.93 299.25C1003.43 299.25 992.982 297.4 983.582 293.7C974.182 290 966.132 284.7 959.432 277.8C952.832 270.9 947.682 262.55 943.982 252.75C940.382 242.95 938.582 231.95 938.582 219.75C938.582 207.65 940.382 196.7 943.982 186.9C947.682 177.1 952.832 168.8 959.432 162C966.132 155.2 974.182 149.95 983.582 146.25C992.982 142.55 1003.43 140.7 1014.93 140.7ZM1014.93 270.75C1027.73 270.75 1037.18 266.45 1043.28 257.85C1049.48 249.25 1052.58 236.65 1052.58 220.05C1052.58 203.45 1049.48 190.8 1043.28 182.1C1037.18 173.4 1027.73 169.05 1014.93 169.05C1001.93 169.05 992.332 173.45 986.132 182.25C979.932 190.95 976.832 203.55 976.832 220.05C976.832 236.55 979.932 249.15 986.132 257.85C992.332 266.45 1001.93 270.75 1014.93 270.75ZM1119.74 347.25V143.1H1142.39C1144.79 143.1 1146.84 143.65 1148.54 144.75C1150.24 145.85 1151.34 147.55 1151.84 149.85L1154.84 164.1C1161.04 157 1168.14 151.25 1176.14 146.85C1184.24 142.45 1193.69 140.25 1204.49 140.25C1212.89 140.25 1220.54 142 1227.44 145.5C1234.44 149 1240.44 154.1 1245.44 160.8C1250.54 167.4 1254.44 175.6 1257.14 185.4C1259.94 195.1 1261.34 206.25 1261.34 218.85C1261.34 230.35 1259.79 241 1256.69 250.8C1253.59 260.6 1249.14 269.1 1243.34 276.3C1237.64 283.5 1230.69 289.15 1222.49 293.25C1214.39 297.25 1205.29 299.25 1195.19 299.25C1186.49 299.25 1179.09 297.95 1172.99 295.35C1166.99 292.65 1161.59 288.95 1156.79 284.25V347.25H1119.74ZM1191.74 169.5C1184.04 169.5 1177.44 171.15 1171.94 174.45C1166.54 177.65 1161.49 182.2 1156.79 188.1V257.1C1160.99 262.3 1165.54 265.95 1170.44 268.05C1175.44 270.05 1180.79 271.05 1186.49 271.05C1192.09 271.05 1197.14 270 1201.64 267.9C1206.24 265.8 1210.09 262.6 1213.19 258.3C1216.39 254 1218.84 248.6 1220.54 242.1C1222.24 235.5 1223.09 227.75 1223.09 218.85C1223.09 209.85 1222.34 202.25 1220.84 196.05C1219.44 189.75 1217.39 184.65 1214.69 180.75C1211.99 176.85 1208.69 174 1204.79 172.2C1200.99 170.4 1196.64 169.5 1191.74 169.5ZM1352.97 140.7C1362.67 140.7 1371.57 142.25 1379.67 145.35C1387.87 148.45 1394.92 153 1400.82 159C1406.72 164.9 1411.32 172.2 1414.62 180.9C1417.92 189.5 1419.57 199.35 1419.57 210.45C1419.57 213.25 1419.42 215.6 1419.12 217.5C1418.92 219.3 1418.47 220.75 1417.77 221.85C1417.17 222.85 1416.32 223.6 1415.22 224.1C1414.12 224.5 1412.72 224.7 1411.02 224.7H1315.92C1317.02 240.5 1321.27 252.1 1328.67 259.5C1336.07 266.9 1345.87 270.6 1358.07 270.6C1364.07 270.6 1369.22 269.9 1373.52 268.5C1377.92 267.1 1381.72 265.55 1384.92 263.85C1388.22 262.15 1391.07 260.6 1393.47 259.2C1395.97 257.8 1398.37 257.1 1400.67 257.1C1402.17 257.1 1403.47 257.4 1404.57 258C1405.67 258.6 1406.62 259.45 1407.42 260.55L1418.22 274.05C1414.12 278.85 1409.52 282.9 1404.42 286.2C1399.32 289.4 1393.97 292 1388.37 294C1382.87 295.9 1377.22 297.25 1371.42 298.05C1365.72 298.85 1360.17 299.25 1354.77 299.25C1344.07 299.25 1334.12 297.5 1324.92 294C1315.72 290.4 1307.72 285.15 1300.92 278.25C1294.12 271.25 1288.77 262.65 1284.87 252.45C1280.97 242.15 1279.02 230.25 1279.02 216.75C1279.02 206.25 1280.72 196.4 1284.12 187.2C1287.52 177.9 1292.37 169.85 1298.67 163.05C1305.07 156.15 1312.82 150.7 1321.92 146.7C1331.12 142.7 1341.47 140.7 1352.97 140.7ZM1353.72 167.25C1342.92 167.25 1334.47 170.3 1328.37 176.4C1322.27 182.5 1318.37 191.15 1316.67 202.35H1386.27C1386.27 197.55 1385.62 193.05 1384.32 188.85C1383.02 184.55 1381.02 180.8 1378.32 177.6C1375.62 174.4 1372.22 171.9 1368.12 170.1C1364.02 168.2 1359.22 167.25 1353.72 167.25ZM1449.62 297V143.1H1471.37C1475.17 143.1 1477.82 143.8 1479.32 145.2C1480.82 146.6 1481.82 149 1482.32 152.4L1484.57 171C1490.07 161.5 1496.52 154 1503.92 148.5C1511.32 143 1519.62 140.25 1528.82 140.25C1536.42 140.25 1542.72 142 1547.72 145.5L1542.92 173.25C1542.62 175.05 1541.97 176.35 1540.97 177.15C1539.97 177.85 1538.62 178.2 1536.92 178.2C1535.42 178.2 1533.37 177.85 1530.77 177.15C1528.17 176.45 1524.72 176.1 1520.42 176.1C1512.72 176.1 1506.12 178.25 1500.62 182.55C1495.12 186.75 1490.47 192.95 1486.67 201.15V297H1449.62ZM1622.63 299.4C1609.33 299.4 1599.08 295.65 1591.88 288.15C1584.68 280.55 1581.08 270.1 1581.08 256.8V170.85H1565.48C1563.48 170.85 1561.73 170.2 1560.23 168.9C1558.83 167.6 1558.13 165.65 1558.13 163.05V148.35L1582.88 144.3L1590.68 102.3C1591.08 100.3 1591.98 98.75 1593.38 97.65C1594.88 96.55 1596.73 96 1598.93 96H1618.13V144.45H1658.63V170.85H1618.13V254.25C1618.13 259.05 1619.33 262.8 1621.73 265.5C1624.13 268.2 1627.33 269.55 1631.33 269.55C1633.63 269.55 1635.53 269.3 1637.03 268.8C1638.63 268.2 1639.98 267.6 1641.08 267C1642.28 266.4 1643.33 265.85 1644.23 265.35C1645.13 264.75 1646.03 264.45 1646.93 264.45C1648.03 264.45 1648.93 264.75 1649.63 265.35C1650.33 265.85 1651.08 266.65 1651.88 267.75L1662.98 285.75C1657.58 290.25 1651.38 293.65 1644.38 295.95C1637.38 298.25 1630.13 299.4 1622.63 299.4ZM1742.7 339.3C1741.6 341.9 1740.15 343.85 1738.35 345.15C1736.65 346.55 1734 347.25 1730.4 347.25H1702.8L1731.6 285.6L1669.35 143.1H1701.75C1704.75 143.1 1707.05 143.8 1708.65 145.2C1710.25 146.6 1711.45 148.2 1712.25 150L1745.1 229.8C1746.2 232.4 1747.15 235.1 1747.95 237.9C1748.75 240.7 1749.45 243.5 1750.05 246.3C1750.85 243.4 1751.7 240.6 1752.6 237.9C1753.6 235.2 1754.65 232.45 1755.75 229.65L1786.65 150C1787.45 148 1788.75 146.35 1790.55 145.05C1792.45 143.75 1794.55 143.1 1796.85 143.1H1826.55L1742.7 339.3ZM832.021 557H800.821C797.321 557 794.421 556.15 792.121 554.45C789.921 552.65 788.321 550.45 787.321 547.85L771.121 503.6H681.271L665.071 547.85C664.271 550.15 662.671 552.25 660.271 554.15C657.971 556.05 655.121 557 651.721 557H620.371L705.571 340.1H746.821L832.021 557ZM691.621 475.1H760.771L734.371 402.95C733.171 399.75 731.821 396 730.321 391.7C728.921 387.3 727.521 382.55 726.121 377.45C724.721 382.55 723.321 387.3 721.921 391.7C720.621 396.1 719.321 399.95 718.021 403.25L691.621 475.1ZM943.609 433.1C942.609 434.7 941.559 435.85 940.459 436.55C939.359 437.15 937.959 437.45 936.259 437.45C934.459 437.45 932.509 436.95 930.409 435.95C928.409 434.95 926.059 433.85 923.359 432.65C920.659 431.35 917.559 430.2 914.059 429.2C910.659 428.2 906.609 427.7 901.909 427.7C894.609 427.7 888.859 429.25 884.659 432.35C880.459 435.45 878.359 439.5 878.359 444.5C878.359 447.8 879.409 450.6 881.509 452.9C883.709 455.1 886.559 457.05 890.059 458.75C893.659 460.45 897.709 462 902.209 463.4C906.709 464.7 911.309 466.15 916.009 467.75C920.709 469.35 925.309 471.2 929.809 473.3C934.309 475.3 938.309 477.9 941.809 481.1C945.409 484.2 948.259 487.95 950.359 492.35C952.559 496.75 953.659 502.05 953.659 508.25C953.659 515.65 952.309 522.5 949.609 528.8C946.909 535 942.959 540.4 937.759 545C932.559 549.5 926.109 553.05 918.409 555.65C910.809 558.15 902.059 559.4 892.159 559.4C886.859 559.4 881.659 558.9 876.559 557.9C871.559 557 866.709 555.7 862.009 554C857.409 552.3 853.109 550.3 849.109 548C845.209 545.7 841.759 543.2 838.759 540.5L847.309 526.4C848.409 524.7 849.709 523.4 851.209 522.5C852.709 521.6 854.609 521.15 856.909 521.15C859.209 521.15 861.359 521.8 863.359 523.1C865.459 524.4 867.859 525.8 870.559 527.3C873.259 528.8 876.409 530.2 880.009 531.5C883.709 532.8 888.359 533.45 893.959 533.45C898.359 533.45 902.109 532.95 905.209 531.95C908.409 530.85 911.009 529.45 913.009 527.75C915.109 526.05 916.609 524.1 917.509 521.9C918.509 519.6 919.009 517.25 919.009 514.85C919.009 511.25 917.909 508.3 915.709 506C913.609 503.7 910.759 501.7 907.159 500C903.659 498.3 899.609 496.8 895.009 495.5C890.509 494.1 885.859 492.6 881.059 491C876.359 489.4 871.709 487.55 867.109 485.45C862.609 483.25 858.559 480.5 854.959 477.2C851.459 473.9 848.609 469.85 846.409 465.05C844.309 460.25 843.259 454.45 843.259 447.65C843.259 441.35 844.509 435.35 847.009 429.65C849.509 423.95 853.159 419 857.959 414.8C862.859 410.5 868.909 407.1 876.109 404.6C883.409 402 891.809 400.7 901.309 400.7C911.909 400.7 921.559 402.45 930.259 405.95C938.959 409.45 946.209 414.05 952.009 419.75L943.609 433.1ZM1022.67 403.1V557H985.616V403.1H1022.67ZM1028.22 358.25C1028.22 361.45 1027.57 364.45 1026.27 367.25C1024.97 370.05 1023.22 372.5 1021.02 374.6C1018.92 376.7 1016.42 378.4 1013.52 379.7C1010.62 380.9 1007.52 381.5 1004.22 381.5C1001.02 381.5 997.966 380.9 995.066 379.7C992.266 378.4 989.816 376.7 987.716 374.6C985.616 372.5 983.916 370.05 982.616 367.25C981.416 364.45 980.816 361.45 980.816 358.25C980.816 354.95 981.416 351.85 982.616 348.95C983.916 346.05 985.616 343.55 987.716 341.45C989.816 339.35 992.266 337.7 995.066 336.5C997.966 335.2 1001.02 334.55 1004.22 334.55C1007.52 334.55 1010.62 335.2 1013.52 336.5C1016.42 337.7 1018.92 339.35 1021.02 341.45C1023.22 343.55 1024.97 346.05 1026.27 348.95C1027.57 351.85 1028.22 354.95 1028.22 358.25ZM1185.26 557H1168.61C1165.11 557 1162.36 556.5 1160.36 555.5C1158.36 554.4 1156.86 552.25 1155.86 549.05L1152.56 538.1C1148.66 541.6 1144.81 544.7 1141.01 547.4C1137.31 550 1133.46 552.2 1129.46 554C1125.46 555.8 1121.21 557.15 1116.71 558.05C1112.21 558.95 1107.21 559.4 1101.71 559.4C1095.21 559.4 1089.21 558.55 1083.71 556.85C1078.21 555.05 1073.46 552.4 1069.46 548.9C1065.56 545.4 1062.51 541.05 1060.31 535.85C1058.11 530.65 1057.01 524.6 1057.01 517.7C1057.01 511.9 1058.51 506.2 1061.51 500.6C1064.61 494.9 1069.71 489.8 1076.81 485.3C1083.91 480.7 1093.36 476.9 1105.16 473.9C1116.96 470.9 1131.61 469.2 1149.11 468.8V459.8C1149.11 449.5 1146.91 441.9 1142.51 437C1138.21 432 1131.91 429.5 1123.61 429.5C1117.61 429.5 1112.61 430.2 1108.61 431.6C1104.61 433 1101.11 434.6 1098.11 436.4C1095.21 438.1 1092.51 439.65 1090.01 441.05C1087.51 442.45 1084.76 443.15 1081.76 443.15C1079.26 443.15 1077.11 442.5 1075.31 441.2C1073.51 439.9 1072.06 438.3 1070.96 436.4L1064.21 424.55C1081.91 408.35 1103.26 400.25 1128.26 400.25C1137.26 400.25 1145.26 401.75 1152.26 404.75C1159.36 407.65 1165.36 411.75 1170.26 417.05C1175.16 422.25 1178.86 428.5 1181.36 435.8C1183.96 443.1 1185.26 451.1 1185.26 459.8V557ZM1113.26 533.9C1117.06 533.9 1120.56 533.55 1123.76 532.85C1126.96 532.15 1129.96 531.1 1132.76 529.7C1135.66 528.3 1138.41 526.6 1141.01 524.6C1143.71 522.5 1146.41 520.05 1149.11 517.25V491.3C1138.31 491.8 1129.26 492.75 1121.96 494.15C1114.76 495.45 1108.96 497.15 1104.56 499.25C1100.16 501.35 1097.01 503.8 1095.11 506.6C1093.31 509.4 1092.41 512.45 1092.41 515.75C1092.41 522.25 1094.31 526.9 1098.11 529.7C1102.01 532.5 1107.06 533.9 1113.26 533.9Z" fill="#2DC3C3"/>
</g>
<defs>
<filter id="filter0_d_3339_3268" x="0" y="0" width="536.501" height="630" filterUnits="userSpaceOnUse" color-interpolation-filters="sRGB">
<feFlood flood-opacity="0" result="BackgroundImageFix"/>
<feColorMatrix in="SourceAlpha" type="matrix" values="0 0 0 0 0 0 0 0 0 0 0 0 0 0 0 0 0 0 127 0" result="hardAlpha"/>
<feOffset dy="4"/>
<feGaussianBlur stdDeviation="2"/>
<feComposite in2="hardAlpha" operator="out"/>
<feColorMatrix type="matrix" values="0 0 0 0 0 0 0 0 0 0 0 0 0 0 0 0 0 0 0.06 0"/>
<feBlend mode="normal" in2="BackgroundImageFix" result="effect1_dropShadow_3339_3268"/>
<feBlend mode="normal" in="SourceGraphic" in2="effect1_dropShadow_3339_3268" result="shape"/>
</filter>
<filter id="filter1_d_3339_3268" x="616.371" y="80.1001" width="1214.18" height="487.3" filterUnits="userSpaceOnUse" color-interpolation-filters="sRGB">
<feFlood flood-opacity="0" result="BackgroundImageFix"/>
<feColorMatrix in="SourceAlpha" type="matrix" values="0 0 0 0 0 0 0 0 0 0 0 0 0 0 0 0 0 0 127 0" result="hardAlpha"/>
<feOffset dy="4"/>
<feGaussianBlur stdDeviation="2"/>
<feComposite in2="hardAlpha" operator="out"/>
<feColorMatrix type="matrix" values="0 0 0 0 0 0 0 0 0 0 0 0 0 0 0 0 0 0 0.04 0"/>
<feBlend mode="normal" in2="BackgroundImageFix" result="effect1_dropShadow_3339_3268"/>
<feBlend mode="normal" in="SourceGraphic" in2="effect1_dropShadow_3339_3268" result="shape"/>
</filter>
</defs>
</svg>
